<?xml version="1.0" standalone="no"?>
<!DOCTYPE svg PUBLIC "-//W3C//DTD SVG 1.1//EN" "http://www.w3.org/Graphics/SVG/1.1/DTD/svg11.dtd" >
<svg>
<metadata>
Created by FontForge 20110222 at Mon Mar  7 12:54:07 2011
 By www-data
Generated by Fontographer 3.5.2 June, 1995. Copyright by SaralSoft, 1995. Unauthorized duplication or use is prohibited. Violat
</metadata>
<defs>
<font id="Gujrati-Saral-1" horiz-adv-x="0" >
  <font-face 
    font-family="Gujrati Saral-1"
    font-weight="400"
    font-stretch="normal"
    units-per-em="1000"
    panose-1="2 0 5 3 0 0 0 0 0 0"
    ascent="800"
    descent="-200"
    x-height="549"
    cap-height="779"
    bbox="-511 -184 2166 813"
    underline-thickness="25"
    underline-position="-213"
    unicode-range="U+0020-203A"
  />
    <missing-glyph />
    <glyph glyph-name="space" unicode=" " horiz-adv-x="360" 
 />
    <glyph glyph-name="exclam" unicode="!" horiz-adv-x="458" 
d="M388 129c0 -75 -67 -130 -162 -130c-110 0 -229 116 -229 219c0 69 49 123 126 141c165 39 193 55 193 100c0 19 -19 28 -57 28c-17 0 -37 -2 -79 -9c-8 12 -35 59 -36 61c16 8 17 8 59 10c78 0 156 -80 156 -136c0 -51 -24 -59 -230 -126c-53 -27 -80 -67 -80 -121
c0 -49 71 -122 122 -122c34 0 50 4 74 18c-41 33 -57 61 -57 101c0 55 39 91 93 91c62 0 107 -54 107 -125zM351 171c0 32 -10 44 -36 44c-66 0 -81 -75 -83 -91c0 -27 12 -41 44 -50c41 5 75 50 75 97z" />
    <glyph glyph-name="quotedbl" unicode="&#x22;" horiz-adv-x="323" 
d="M234 622c0 -38 -4 -55 -30 -111c-23 44 -30 93 -30 104c0 24 16 57 27 57c12 0 33 -31 33 -50zM137 623c0 -39 -3 -54 -30 -110c-23 46 -30 97 -30 109c0 22 17 52 31 52c16 -10 29 -33 29 -51z" />
    <glyph glyph-name="numbersign" unicode="#" horiz-adv-x="471" 
d="M406 158c0 -81 -85 -159 -183 -159c-97 0 -224 100 -224 182c0 83 71 149 189 176c-49 49 -69 81 -69 107c0 47 61 88 132 88c13 -8 37 -30 64 -59c-91 0 -136 -22 -136 -60c0 -19 20 -42 59 -68c132 -88 168 -127 168 -207zM345 188c0 66 -43 110 -107 110
c-96 0 -172 -60 -172 -140c0 -50 59 -114 106 -114c94 0 173 67 173 144z" />
    <glyph glyph-name="dollar" unicode="$" horiz-adv-x="346" 
d="M167 448c-14 40 -25 56 -41 56c-22 0 -48 -30 -48 -53c0 -21 41 -53 63 -53c11 0 26 35 26 50zM383 233c0 -31 -14 -61 -35 -74c-69 -54 -123 -75 -175 -75c-73 0 -207 126 -207 195c0 20 23 39 71 56c32 12 59 27 79 44c-67 43 -100 84 -100 122c0 29 31 58 62 58
c58 0 143 -83 143 -142c0 -61 -29 -87 -130 -140c-31 -16 -46 -31 -46 -44c0 -46 54 -104 96 -104c35 0 104 55 207 164c1 1 2 1 3 1c9 0 32 -36 32 -61z" />
    <glyph glyph-name="percent" unicode="%" horiz-adv-x="363" 
d="M380 480c-6 16 -18 24 -36 24c-61 0 -73 -21 -73 -131c0 -210 -22 -279 -98 -279c-35 0 -108 49 -140 96c-28 42 -42 91 -42 148c0 87 39 197 97 215c4 -3 5 -4 28 -49c-57 -76 -70 -108 -70 -208c0 -104 27 -149 90 -149c39 0 69 42 69 94v147c0 97 39 161 98 161
c55 0 72 -16 77 -69z" />
    <glyph glyph-name="ampersand" unicode="&#x26;" horiz-adv-x="293" 
d="M193 518c-36 0 -89 -36 -89 -61c0 -33 30 -86 39 -86c29 0 75 62 75 107c0 28 -8 40 -25 40zM298 212c-61 0 -136 35 -162 77c-47 -36 -98 -70 -110 -77c-7 8 -17 22 -40 56c14 8 21 12 108 70c-42 63 -55 92 -61 140c0 46 48 84 103 84c96 0 128 -26 128 -105
c0 -51 -39 -118 -83 -142c15 -36 61 -60 117 -60v-43z" />
    <glyph glyph-name="quotesingle" unicode="'" horiz-adv-x="242" 
d="M142 621c0 -39 -3 -53 -34 -110c-18 33 -34 84 -34 104c0 27 20 56 35 56c13 -5 33 -27 33 -50z" />
    <glyph glyph-name="parenleft" unicode="(" horiz-adv-x="373" 
d="M213 494c0 18 -17 21 -44 21c-28 0 -61 -33 -61 -60c0 -24 26 -60 45 -60c21 0 53 31 60 99zM385 250c-56 0 -124 34 -196 84c-20 0 -157 -84 -157 -158c0 -42 26 -79 55 -79c48 0 84 13 110 38c-21 29 -34 48 -34 65s21 34 40 34c28 0 73 -35 73 -65
c0 -26 -2 -42 -7 -50c0 -5 17 -18 49 -40c33 -20 50 -43 50 -68s-17 -61 -28 -61c-8 0 -52 35 -52 42c11 27 12 30 12 42c0 27 -24 57 -48 57c-5 0 -10 -2 -15 -4c-36 -21 -66 -30 -97 -32c-82 0 -165 75 -165 153c0 70 24 94 154 165c-69 50 -86 67 -86 102
c0 46 47 87 78 87c79 0 150 -53 150 -113c0 -15 -7 -32 -20 -51c-30 -36 -30 -38 -30 -44c0 -22 39 -35 127 -43c26 4 39 5 40 5c8 0 13 -6 13 -21c-2 -29 -7 -45 -16 -45z" />
    <glyph glyph-name="parenright" unicode=")" horiz-adv-x="572" 
d="M514 64c0 -28 -35 -65 -65 -65c-56 0 -122 56 -122 98v301c-60 14 -167 37 -178 37c-64 0 -99 -29 -99 -82c0 -26 21 -53 39 -53c65 16 70 17 75 17c45 0 102 -62 102 -111c0 -37 -15 -70 -45 -97c-35 -24 -55 -39 -63 -45c33 -50 41 -58 60 -58c11 0 14 2 55 20
c9 0 40 -29 40 -40c0 -14 -4 -15 -39 -20c-39 0 -74 15 -106 47c-33 31 -52 46 -59 46c-77 0 -132 33 -132 80c0 18 17 35 36 35c17 0 26 -7 87 -59c55 0 117 62 117 120c0 18 -13 31 -29 31c-52 -19 -53 -19 -60 -19c-48 0 -137 94 -137 147c0 43 38 76 87 76
c26 0 53 -4 82 -12s53 -12 73 -12c55 0 79 7 94 27v80c11 -6 19 -11 62 -42v-443c5 -13 11 -19 19 -19c15 0 35 31 43 48c1 1 3 2 5 2c11 0 58 -20 58 -35z" />
    <glyph glyph-name="asterisk" unicode="*" horiz-adv-x="349" 
d="M303 244c0 3 -41 45 -190 199v-222c13 -23 19 -30 36 -30c50 0 128 25 154 53zM367 219c0 -32 -30 -44 -102 -61c-33 -10 -55 -14 -73 -15c-52 0 -143 79 -143 126v227c-4 7 -7 10 -10 10c-2 0 -5 -3 -9 -8c-10 -16 -17 -25 -22 -28c-32 25 -36 29 -36 34
c0 20 36 45 64 45c18 0 47 -22 95 -72l172 -182c46 -42 64 -62 64 -76z" />
    <glyph glyph-name="plus" unicode="+" horiz-adv-x="653" 
d="M509 506c49 -141 64 -200 64 -262c0 -251 -99 -320 -284 -320c-105 0 -211 54 -256 130c18 -3 41 -13 70 -28c95 -50 110 -57 172 -57c109 10 154 29 191 85c33 50 42 87 42 164c0 87 -6 117 -42 229c-32 -40 -102 -133 -102 -139c43 -69 65 -133 65 -192
c0 -62 -50 -112 -113 -112c-70 0 -143 76 -143 149c0 27 16 50 127 192c0 23 -105 147 -168 147c49 -86 51 -90 51 -124c0 -58 -28 -97 -69 -97c-73 0 -146 91 -146 182c0 57 50 102 114 102c88 0 118 -29 234 -186c15 14 32 36 141 185c46 -35 52 -40 52 -48zM383 176
c0 26 -8 49 -39 103c-98 -126 -118 -151 -118 -176s33 -49 63 -49c49 0 94 58 94 122zM139 420c0 35 -21 58 -40 58c-35 0 -66 -50 -66 -102c0 -44 6 -57 26 -57c58 0 80 29 80 101z" />
    <glyph glyph-name="comma" unicode="," horiz-adv-x="343" 
d="M133 33c0 -54 -21 -97 -68 -135v14c11 20 21 52 26 88c-4 -1 -7 -3 -10 -4c-21 0 -32 14 -32 41c0 25 20 42 43 42c22 0 41 -21 41 -46z" />
    <glyph glyph-name="hyphen" unicode="-" horiz-adv-x="491" 
d="M443 246h-325l-62 62v22h325l62 -61v-23zM118 246l-62 62zM381 330l62 -61z" />
    <glyph glyph-name="period" unicode="." horiz-adv-x="361" 
d="M161 65l-68 -69l-68 71l68 71z" />
    <glyph glyph-name="slash" unicode="/" 
d="M-418 57l45 -48l171 181l-38 51z" />
    <glyph glyph-name="zero" unicode="0" horiz-adv-x="503" 
d="M438 301c0 -153 -116 -300 -237 -300c-97 0 -193 110 -193 220c0 36 8 53 54 108c-61 39 -90 82 -90 132c0 47 31 76 99 95c6 0 29 -17 49 -45c-70 -35 -91 -46 -91 -100c0 -31 28 -65 54 -65c8 0 26 10 48 25l38 -45c-74 -38 -115 -93 -115 -155c0 -71 40 -116 102 -116
c116 0 205 109 205 163c0 7 -12 23 -36 45c-75 72 -104 121 -104 191c0 58 24 98 59 98c81 0 158 -137 158 -251zM324 501c-32 0 -50 -26 -50 -69c0 -68 29 -120 101 -186c13 22 13 29 18 92c0 104 -32 160 -69 163z" />
    <glyph glyph-name="one" unicode="1" horiz-adv-x="604" 
d="M555 149c0 -31 -15 -66 -27 -66c-8 -1 -12 3 -51 38c37 29 46 37 46 58c0 41 -52 104 -75 104c-40 -19 -43 -20 -54 -20c-14 0 -22 3 -35 11v-207c0 -16 5 -24 14 -24c12 0 34 18 57 52h1c7 0 50 -22 50 -33c0 -12 -35 -63 -63 -63c-51 0 -117 39 -117 68v144
c-25 -16 -197 -103 -198 -103c-4 0 -6 4 -37 50c96 46 118 57 216 113c-22 52 -84 110 -121 110c-26 0 -87 -25 -104 -33c-16 11 -29 27 -41 48c26 17 62 32 109 37c51 0 95 -37 176 -140v260c22 -11 58 -34 58 -42v-181c0 -24 5 -36 15 -36c23 0 31 6 52 36
c-12 28 -24 57 -24 58c0 16 13 43 34 43c38 0 73 -39 73 -77c0 -15 -9 -42 -25 -71c48 -46 71 -90 71 -134z" />
    <glyph glyph-name="two" unicode="2" horiz-adv-x="512" 
d="M454 64c0 -16 -52 -66 -71 -66c-46 0 -102 47 -119 98v53c-14 -19 -52 -36 -88 -36c-86 0 -172 69 -172 137c0 34 9 51 43 82c-52 73 -58 85 -58 109c0 48 19 90 62 139c28 -19 46 -35 46 -42c0 -1 0 -3 -1 -3c-32 -34 -60 -106 -60 -134c0 -19 4 -26 28 -55
c41 19 45 20 55 20c4 0 7 -2 9 -5c6 -14 13 -26 19 -37c-65 -38 -90 -60 -90 -90c0 -47 39 -85 75 -85c67 0 132 69 132 140v202c26 -15 46 -28 62 -39v-384c0 -10 4 -15 14 -15c21 0 50 22 59 43c23 -5 55 -23 55 -32z" />
    <glyph glyph-name="three" unicode="3" horiz-adv-x="438" 
d="M367 103c0 -20 -20 -42 -61 -66c-40 -24 -77 -36 -110 -36c-111 0 -211 91 -211 194c0 54 25 95 74 123c201 74 214 79 214 123c0 32 -28 50 -75 50c-29 0 -32 -1 -78 -15c-5 0 -22 18 -54 57c16 14 40 20 83 20c52 0 97 -20 134 -59c30 -30 44 -59 44 -85
c0 -39 -25 -69 -77 -92c-44 -18 -87 -35 -131 -53c-47 -24 -70 -58 -70 -100c0 -61 32 -104 81 -104c71 0 88 11 204 91c9 0 33 -35 33 -48z" />
    <glyph glyph-name="four" unicode="4" horiz-adv-x="584" 
d="M533 68c0 -23 -49 -69 -68 -69c-39 0 -117 36 -117 69v91c-69 -54 -123 -75 -175 -75c-73 0 -207 126 -207 195c0 20 23 39 71 56c32 12 59 27 79 44c-67 43 -100 84 -100 122c0 29 31 58 62 58c58 0 143 -83 143 -142c0 -61 -29 -87 -130 -140c-31 -16 -46 -31 -46 -44
c0 -46 54 -104 96 -104c79 0 207 116 207 195v226l63 -43v-443c5 -11 12 -17 20 -17c12 0 19 7 49 50h2c8 0 51 -17 51 -29zM167 448c-14 40 -25 56 -41 56c-22 0 -48 -30 -48 -53c0 -21 41 -53 63 -53c11 0 26 35 26 50z" />
    <glyph glyph-name="five" unicode="5" horiz-adv-x="623" 
d="M563 68c-11 -27 -52 -70 -72 -70c-53 0 -111 52 -111 96v386c-6 16 -18 24 -36 24c-61 0 -73 -21 -73 -131c0 -210 -22 -279 -98 -279c-35 0 -108 49 -140 96c-28 42 -42 91 -42 148c0 87 39 197 97 215c4 -3 5 -4 28 -49c-57 -76 -70 -108 -70 -208
c0 -104 27 -149 90 -149c39 0 69 42 69 94v147c0 97 39 161 98 161c61 0 133 -51 138 -105v-376c6 -15 13 -22 21 -22c13 0 31 18 46 48c48 -21 52 -23 55 -26z" />
    <glyph glyph-name="six" unicode="6" horiz-adv-x="569" 
d="M511 64c0 -19 -37 -64 -65 -64c-62 0 -122 48 -122 98l1 86c-36 -48 -87 -87 -116 -87c-96 0 -200 91 -200 171c0 25 5 35 32 82c-42 41 -58 70 -58 104c0 55 46 93 123 101c11 0 30 -14 52 -44c-65 0 -114 -37 -114 -86c0 -40 6 -56 22 -56c55 17 57 17 68 17
c9 0 15 0 17 -2c4 -9 13 -22 27 -38c-59 -20 -68 -23 -84 -47c-14 -21 -21 -51 -21 -88c0 -32 44 -66 85 -66c68 0 152 105 166 150l1 254c38 -23 53 -33 59 -38v-443c9 -14 18 -21 26 -21c11 0 19 10 50 50c49 -27 51 -29 51 -33z" />
    <glyph glyph-name="seven" unicode="7" horiz-adv-x="619" 
d="M180 521c-44 0 -93 -23 -93 -45c0 -31 50 -105 56 -105c29 0 75 62 75 107c0 32 -10 43 -38 43zM372 257v294c6 -3 10 -6 62 -41v-441c9 -14 18 -21 27 -21c14 0 27 15 40 48c40 -12 58 -22 58 -32c0 -31 -35 -65 -70 -65c-40 0 -117 42 -117 70v105l-209 -176l-47 45
l182 148c-51 0 -132 49 -162 98c-47 -36 -98 -70 -110 -77c-7 8 -17 22 -40 56c14 8 21 12 108 70c-42 63 -55 92 -61 140c0 46 48 84 103 84c96 0 128 -26 128 -105c0 -51 -39 -118 -83 -142c16 -40 79 -83 122 -83c14 0 58 11 69 25z" />
    <glyph glyph-name="eight" unicode="8" horiz-adv-x="514" 
d="M464 69c0 -22 -36 -68 -70 -68c-42 0 -117 39 -117 68v100c-26 -13 -68 -24 -105 -24c-55 0 -149 78 -149 125v223c-4 7 -8 10 -11 10c-4 0 -6 -4 -20 -41c-15 9 -52 30 -52 36c0 24 32 53 60 53c19 0 51 -24 104 -73l173 -182v256c10 -6 26 -16 64 -40v-443
c7 -12 15 -18 23 -18c14 0 29 16 47 47c15 0 53 -19 53 -29zM277 245c0 3 -47 53 -186 198l2 -215c5 -22 17 -31 36 -31c60 0 120 19 148 48z" />
    <glyph glyph-name="nine" unicode="9" horiz-adv-x="624" 
d="M574 67c0 -25 -42 -68 -67 -68c-37 0 -116 41 -116 68v223c-13 -5 -16 -6 -38 -8c-71 2 -72 2 -164 52c-20 0 -157 -84 -157 -158c0 -42 26 -79 55 -79c48 0 84 13 110 38c-21 29 -34 48 -34 65s21 34 40 34c28 0 73 -35 73 -65c0 -26 -2 -42 -7 -50c0 -5 17 -18 49 -40
c33 -20 50 -43 50 -68s-17 -61 -28 -61c-8 0 -52 35 -52 42c11 27 12 30 12 42c0 27 -24 57 -48 57c-5 0 -10 -2 -15 -4c-36 -21 -66 -30 -97 -32c-82 0 -165 75 -165 153c0 70 24 94 154 165c-69 50 -86 67 -86 102c0 46 47 87 78 87c79 0 150 -53 150 -113
c0 -23 -10 -41 -47 -83c-2 -3 -3 -7 -3 -10c0 -16 40 -31 82 -31c58 0 88 24 88 71v154c57 -33 58 -34 63 -39v-444c8 -14 16 -19 25 -19c15 0 27 15 47 49c36 -14 48 -22 48 -30zM213 494c0 18 -17 21 -44 21c-28 0 -61 -33 -61 -60c0 -24 26 -60 45 -60c21 0 53 31 60 99z
" />
    <glyph glyph-name="colon" unicode=":" horiz-adv-x="163" 
d="M92 423l-46 -46l-45 46l45 48zM92 128l-46 -48l-45 48l45 48z" />
    <glyph glyph-name="semicolon" unicode=";" horiz-adv-x="343" 
d="M126 189l-45 -48l-45 48l45 47zM133 33c0 -54 -21 -97 -68 -135v14c11 20 21 52 26 88c-4 -1 -7 -3 -10 -4c-21 0 -32 14 -32 41c0 25 20 42 43 42c22 0 41 -21 41 -46z" />
    <glyph glyph-name="less" unicode="&#x3c;" 
d="M-134 -8c-71 0 -102 -18 -102 -83c0 -22 13 -31 42 -35c12 0 12 0 76 20c18 -19 29 -36 29 -45c0 -7 -15 -10 -61 -15c-72 0 -124 50 -124 121c4 57 60 86 140 86v-49z" />
    <glyph glyph-name="equal" unicode="=" horiz-adv-x="725" 
d="M139 420c0 35 -21 58 -40 58c-35 0 -66 -50 -66 -102c0 -44 6 -57 26 -57c58 0 80 29 80 101zM383 176c0 26 -8 49 -39 103c-98 -126 -118 -151 -118 -176s33 -49 63 -49c49 0 94 58 94 122zM546 515v-441c8 -14 17 -21 26 -21c14 0 26 15 41 48c39 -12 58 -22 58 -33
c0 -30 -35 -64 -71 -64c-16 0 -117 29 -117 70v379c-114 -136 -119 -143 -119 -145c43 -69 65 -133 65 -192c0 -62 -50 -112 -113 -112c-70 0 -143 76 -143 149c0 27 16 50 127 192c0 23 -105 147 -168 147c49 -86 51 -90 51 -124c0 -58 -28 -97 -69 -97
c-73 0 -146 91 -146 182c0 57 50 102 114 102c88 0 118 -29 234 -186c22 26 32 36 178 186z" />
    <glyph glyph-name="greater" unicode="&#x3e;" 
d="M-161 703l-45 -46l-45 46l45 48z" />
    <glyph glyph-name="question" unicode="?" horiz-adv-x="316" 
d="M107 219c-24 -36 -28 -42 -28 -51c0 -18 15 -34 32 -34c7 0 10 2 10 5c-12 11 -15 20 -15 29c0 17 18 22 24 22c14 0 33 -8 33 -26c0 -28 -32 -58 -67 -58c-34 0 -62 35 -62 68c0 31 15 56 125 231c16 23 24 41 24 57c0 25 -24 44 -52 44c-36 0 -76 -31 -89 -68
c1 -2 2 -3 3 -4c17 8 27 12 30 12c13 0 20 -10 23 -32c0 -20 -20 -36 -44 -36c-35 0 -55 24 -55 68c0 57 53 106 115 106c53 0 107 -67 107 -131c0 -34 -29 -77 -114 -202zM138 38c0 -33 -23 -39 -34 -40c-21 0 -34 14 -35 37c0 21 13 34 34 35c18 0 33 -14 35 -32z" />
    <glyph glyph-name="at" unicode="@" horiz-adv-x="281" 
d="M176 113c-86 0 -172 69 -172 137c0 34 9 51 43 82c-52 73 -58 85 -58 109c0 48 19 90 62 139c28 -19 46 -35 46 -42c0 -1 0 -3 -1 -3c-32 -34 -60 -106 -60 -134c0 -19 4 -26 28 -55c41 19 45 20 55 20c4 0 7 -2 9 -5c6 -14 13 -26 19 -37c-65 -38 -90 -60 -90 -90
c0 -47 39 -85 75 -85c34 0 52 19 151 124c10 0 29 -43 29 -56c0 -46 -76 -104 -136 -104z" />
    <glyph glyph-name="A" unicode="A" horiz-adv-x="711" 
d="M645 67c0 -32 -33 -68 -69 -68c-43 0 -118 41 -118 68v157c-51 23 -65 30 -85 49c-5 -34 -11 -66 -17 -97c-15 -50 -37 -74 -67 -74c-48 0 -55 3 -163 72c-1 -1 -42 -10 -44 -10c-49 0 -91 55 -91 93c0 28 11 39 37 39c29 0 56 -15 90 -51c46 27 96 119 96 174
c0 33 -38 83 -65 83c-17 0 -19 -1 -103 -28c-19 18 -23 22 -31 35c11 24 52 43 92 43c67 0 148 -99 148 -181c0 -41 -29 -104 -94 -173c45 -42 62 -52 92 -54c48 0 69 76 69 255h7c40 -21 43 -23 50 -28c0 -48 -2 -68 -6 -80c17 -6 18 -6 41 -10c41 0 45 14 45 65l-1 206
c9 -5 10 -5 62 -43l1 -455c7 -11 14 -17 22 -17c13 0 27 18 44 59c40 -11 58 -20 58 -29z" />
    <glyph glyph-name="B" unicode="B" horiz-adv-x="375" 
d="M394 257c0 -24 -10 -40 -26 -44c-48 0 -58 2 -99 33c-28 -106 -64 -152 -114 -152c-56 0 -183 104 -183 239c0 99 88 216 118 216c7 0 17 -10 43 -46c-68 -68 -104 -142 -104 -217c0 -49 62 -148 97 -148c27 0 87 52 87 119c0 4 -9 12 -27 25c-17 13 -26 28 -26 46
c0 16 22 38 37 38c27 0 50 -19 70 -57c20 -39 38 -58 54 -58c9 0 23 10 40 28c4 2 10 4 13 7c14 -6 20 -14 20 -29z" />
    <glyph glyph-name="C" unicode="C" horiz-adv-x="378" 
d="M405 246c0 -13 -9 -45 -25 -88c-50 -37 -88 -55 -119 -55c-29 0 -62 16 -100 48c-37 32 -61 48 -71 48c-3 -6 -12 -8 -25 -8c-51 0 -90 39 -90 92c0 19 13 35 30 35c27 0 29 -2 96 -57c9 0 26 14 52 42c33 35 50 73 50 114c0 49 -34 85 -82 85c-12 0 -13 0 -77 -21
c-6 0 -6 1 -42 43c23 21 44 30 74 30c94 0 175 -87 175 -183c0 -58 -24 -91 -110 -163c23 -36 49 -53 80 -55c37 0 67 30 159 148c19 0 20 -11 25 -55z" />
    <glyph glyph-name="D" unicode="D" horiz-adv-x="451" 
d="M338 126c0 32 -16 64 -48 97c-126 108 -137 119 -137 146c0 32 23 51 117 127c-23 23 -39 36 -64 53c-18 0 -115 -93 -115 -130c0 -48 25 -73 133 -181c31 -33 46 -63 46 -89c0 -53 -41 -90 -96 -90c-68 0 -106 32 -185 102c-30 23 -34 27 -37 28
c15 -72 176 -192 265 -192c62 0 121 63 121 129z" />
    <glyph glyph-name="E" unicode="E" 
d="M-176 552h-37c-95 71 -140 97 -190 106c-22 0 -34 -10 -49 -36c-2 -4 -3 -6 -4 -6c-29 20 -39 28 -55 37c5 9 5 10 5 11c15 25 23 28 66 31c38 0 66 -13 106 -36l95 -67l36 -25l-15 28l-36 53c-29 47 -73 88 -97 88c-26 0 -36 -3 -52 -15c-2 0 -6 3 -10 8l-33 43
c11 12 11 12 51 15c76 0 126 -53 219 -235z" />
    <glyph glyph-name="F" unicode="F" horiz-adv-x="319" 
d="M337 13c-8 -7 -49 -16 -71 -16c-42 0 -63 16 -110 71l-6 3c0 -2 0 -2 -22 -3c-64 0 -129 42 -129 89c4 17 15 29 38 29c29 0 52 -8 71 -24c27 -26 27 -26 34 -26c36 0 71 53 71 110c-3 26 -13 35 -39 35l-125 -4c-18 10 -31 20 -46 46c16 9 27 10 120 14
c-43 66 -55 85 -55 121c0 45 72 96 138 96c19 0 21 -3 45 -43c-110 -41 -135 -50 -135 -105c0 -28 22 -61 40 -61c23 0 54 2 127 8c6 0 20 -14 54 -51c-20 -7 -41 -9 -113 -15c42 -53 46 -60 46 -79c0 -56 -28 -96 -91 -132c28 -40 31 -43 45 -43c18 0 33 11 54 31
c20 -15 42 -34 59 -51z" />
    <glyph glyph-name="G" unicode="G" horiz-adv-x="333" 
d="M239 307c0 135 -83 247 -181 247c-22 0 -42 -12 -62 -39c27 -30 28 -31 34 -36c35 26 47 32 79 32s86 -92 86 -140c0 -116 -43 -179 -122 -179c-23 0 -33 8 -96 66c8 -71 69 -114 146 -114c60 0 116 78 116 163z" />
    <glyph glyph-name="H" unicode="H" horiz-adv-x="421" 
d="M304 271c0 -45 -51 -85 -108 -85c-56 0 -90 16 -143 72c78 -25 86 -27 104 -27c52 0 77 22 77 65c0 26 -16 50 -47 73c-121 76 -135 88 -135 120c0 29 75 65 130 65c6 0 9 -5 33 -55c-79 -21 -90 -26 -90 -43c0 -10 15 -24 46 -43c104 -64 133 -95 133 -142zM285 46
c0 -24 -39 -48 -76 -48c-42 0 -86 22 -138 71l4 4c39 -22 72 -35 88 -35c45 0 68 11 68 33c0 23 -50 45 -188 83c-53 15 -87 67 -87 133c0 45 100 103 120 103c7 0 30 -43 30 -56c-77 -53 -88 -62 -88 -83c0 -55 37 -68 198 -126c46 -20 69 -47 69 -79z" />
    <glyph glyph-name="I" unicode="I" horiz-adv-x="251" 
d="M2 66v485c0 61 -93 192 -154 192c-43 0 -70 -38 -75 -112c0 -28 8 -50 23 -66h-49c-18 18 -30 51 -30 85c0 53 39 118 75 126c7 2 19 3 35 3c83 0 212 -123 240 -228v-480c8 -16 17 -23 26 -23c13 0 28 18 41 51c36 -11 58 -23 58 -33c0 -31 -35 -65 -71 -65
c-45 0 -119 34 -119 65z" />
    <glyph glyph-name="J" unicode="J" horiz-adv-x="480" 
d="M139 420c0 35 -21 58 -40 58c-35 0 -66 -50 -66 -102c0 -44 6 -57 26 -57c58 0 80 29 80 101zM383 176c0 26 -8 49 -39 103c-98 -126 -118 -151 -118 -176s33 -49 63 -49c49 0 94 58 94 122zM364 308c43 -69 65 -133 65 -192c0 -62 -50 -112 -113 -112
c-70 0 -143 76 -143 149c0 27 16 50 127 192c0 23 -105 147 -168 147c49 -86 51 -90 51 -124c0 -58 -28 -97 -69 -97c-73 0 -146 91 -146 182c0 57 50 102 114 102c86 0 116 -28 234 -187c88 64 116 79 181 95c-2 -12 -2 -16 -3 -42c0 -11 1 -17 3 -18
c-76 -31 -133 -83 -133 -95z" />
    <glyph glyph-name="K" unicode="K" horiz-adv-x="291" 
d="M324 301c-28 26 -46 40 -60 47c-82 -27 -114 -35 -125 -35c-14 0 -53 56 -53 77c0 27 19 51 58 73c26 14 44 26 54 36c-41 54 -42 54 -46 57c-50 -13 -128 -72 -128 -118c0 -33 16 -54 89 -137c-23 -14 -27 -15 -141 -55c16 -16 24 -21 62 -48c88 34 121 45 132 45
c18 0 27 -26 32 -71c0 -55 -12 -69 -62 -113c-19 -17 -57 -30 -90 -30c-19 0 -37 4 -54 12l32 -27c36 -10 44 -10 99 -11c66 0 130 68 130 141c0 18 -19 59 -40 84l-22 27c45 21 56 24 133 46z" />
    <glyph glyph-name="L" unicode="L" horiz-adv-x="358" 
d="M308 54c-22 -20 -59 -32 -100 -32c-99 0 -212 150 -212 281c0 113 98 248 187 248c3 0 5 -3 36 -56c-105 -48 -162 -148 -162 -286c0 -61 46 -141 141 -141l74 39c1 0 2 -2 36 -53zM388 318c0 -48 -8 -52 -205 -109c-10 0 -16 7 -52 56c90 30 195 72 220 83
c22 0 37 -18 37 -30z" />
    <glyph glyph-name="M" unicode="M" horiz-adv-x="323" 
d="M349 231c0 -22 -9 -32 -28 -32h-188c0 -60 -15 -97 -38 -97c-47 0 -114 73 -114 119c0 28 20 30 82 36v217c0 16 -6 25 -17 25c-16 0 -30 -22 -37 -57c-40 24 -62 40 -62 46c0 19 27 64 52 64c65 0 99 -25 129 -97v-194h193c15 0 28 -15 28 -30z" />
    <glyph glyph-name="N" unicode="N" horiz-adv-x="291" 
d="M116 213c0 -19 -7 -29 -20 -32c-41 7 -48 34 -50 50c0 23 13 38 32 44c31 -6 33 -9 38 -62zM326 331c0 -23 -11 -36 -31 -36l-131 -6c-21 -4 -32 -9 -32 -14c23 -41 24 -54 27 -93c0 -27 -14 -41 -42 -41c-64 0 -155 78 -155 142c0 36 77 71 150 71h183
c21 -5 31 -13 31 -23z" />
    <glyph glyph-name="O" unicode="O" horiz-adv-x="244" 
d="M189 64c0 -32 -34 -65 -70 -65c-40 0 -116 43 -116 71v479c4 -1 41 -24 61 -38v-441c9 -14 18 -21 27 -21c14 0 28 17 40 49c40 -12 58 -23 58 -34zM56 549h-41c-101 67 -157 97 -211 105c-25 0 -28 -3 -60 -41c-7 5 -50 32 -60 37c5 8 6 9 6 11c20 27 26 28 73 31
c49 0 124 -32 172 -69l91 -59l-17 28l-39 52c-41 55 -83 89 -109 89c-27 0 -28 0 -57 -15c-5 0 -8 4 -48 51c14 12 15 12 57 15c83 0 140 -54 243 -235z" />
    <glyph glyph-name="P" unicode="P" horiz-adv-x="266" 
d="M299 314c0 -20 -16 -87 -26 -100c-38 -49 -77 -77 -107 -79c-53 0 -141 70 -141 115v236c0 27 -1 28 -8 28c-11 0 -17 -6 -20 -16c-5 -26 -9 -31 -15 -31c-14 0 -55 21 -55 31c0 15 38 55 60 55c49 0 95 -48 109 -114v-235c12 -16 21 -21 37 -21c13 0 39 28 140 145
c4 3 8 5 12 5c9 0 14 -7 14 -19z" />
    <glyph glyph-name="Q" unicode="Q" horiz-adv-x="346" 
d="M381 296c0 -29 -39 -49 -92 -49c-15 0 -23 1 -33 4c0 -77 -47 -182 -92 -182c-24 0 -43 3 -57 10c-78 55 -95 80 -95 187l2 195c0 31 -1 34 -22 38c-8 -6 -9 -8 -21 -38c-26 9 -41 17 -41 32c0 25 36 56 62 56c35 0 81 -68 84 -155c-1 -101 -2 -121 -3 -148
c0 -90 14 -130 45 -130c62 0 82 65 82 253c43 -15 44 -15 58 -21l-2 -74c52 0 62 8 95 57c19 0 27 -10 30 -35z" />
    <glyph glyph-name="R" unicode="R" 
d="M-188 554l-6 15c-40 67 -69 126 -69 143c0 23 31 44 65 44c21 0 41 -7 59 -22c50 -46 56 -51 61 -51c3 0 4 2 4 6c-34 81 -74 124 -146 124c-59 0 -99 -30 -99 -74c0 -31 15 -59 63 -127c19 -26 31 -46 36 -58h32z" />
    <glyph glyph-name="S" unicode="S" horiz-adv-x="407" 
d="M433 272c0 -48 -35 -64 -121 -71c-44 0 -78 5 -118 18c-11 -9 -51 -38 -63 -46c39 -94 57 -122 89 -122c21 0 38 5 51 17c13 11 23 16 28 16c12 0 30 -36 30 -46c0 -22 -40 -41 -87 -41c-43 0 -52 9 -146 164c-98 8 -142 38 -142 98c0 22 29 48 52 48c24 0 45 -11 62 -33
c18 -21 29 -31 34 -31c58 0 118 92 118 181c0 36 -48 75 -72 75c-40 0 -48 -4 -106 -35c-8 0 -39 36 -39 50s49 40 76 40c108 0 190 -79 190 -180c0 -45 -13 -82 -41 -118c19 -4 34 -7 35 -7c31 0 118 31 139 52c20 0 31 -10 31 -29z" />
    <glyph glyph-name="T" unicode="T" horiz-adv-x="246" 
d="M276 337c0 -16 -17 -34 -30 -34h-71l-96 -12c-38 -13 -58 -45 -58 -98c0 -22 58 -112 123 -177c5 -6 8 -11 8 -13c0 -3 -1 -4 -2 -6c-114 70 -187 173 -187 265c0 74 69 108 215 108c82 0 95 -3 98 -33z" />
    <glyph glyph-name="U" unicode="U" 
d="M28 -161c-163 77 -213 93 -267 93c-56 0 -88 -18 -88 -53c0 -13 9 -21 26 -21c10 0 34 8 73 24c15 7 26 10 33 10c10 0 24 -22 24 -42c-27 -12 -62 -19 -92 -19c-57 0 -91 22 -91 58c0 58 36 88 103 88c86 0 204 -60 282 -138h-3z" />
    <glyph glyph-name="V" unicode="V" horiz-adv-x="298" 
d="M324 206c0 -43 -15 -58 -81 -89c-29 -13 -53 -20 -71 -20c-108 0 -203 93 -203 198c0 41 33 107 74 141c34 27 76 41 125 41c33 -38 38 -45 46 -57c-135 -22 -180 -53 -180 -152c0 -82 22 -112 83 -112c80 0 147 31 173 80c25 0 34 -20 34 -30z" />
    <glyph glyph-name="W" unicode="W" horiz-adv-x="420" 
d="M422 206h-148c0 -64 -7 -93 -29 -93c-12 0 -33 13 -62 38c-35 30 -52 59 -52 87c0 20 21 26 77 31v204c0 23 -5 38 -43 38c-63 0 -131 -110 -131 -212c0 -124 45 -224 131 -295c-2 -4 -4 -5 -6 -5c-24 0 -172 122 -172 323c0 113 75 227 148 227c47 0 139 -68 139 -108
v-175l148 -1c7 0 17 -8 26 -22c0 -19 -13 -37 -26 -37z" />
    <glyph glyph-name="X" unicode="X" horiz-adv-x="325" 
d="M269 13c-15 -10 -17 -11 -49 -14c-27 0 -52 13 -74 38c-19 29 -39 57 -58 86c-92 4 -134 32 -134 89c0 20 18 38 37 38c40 0 52 -10 93 -55c1 -1 3 -1 4 -1c21 0 107 81 107 123c0 5 -17 16 -51 33c-107 52 -147 88 -147 134c0 35 35 67 74 67c87 0 198 -105 198 -191
c0 -103 -45 -167 -155 -227c33 -69 42 -84 63 -84c20 0 23 2 43 21h1c6 0 31 -24 48 -57zM211 400c0 54 -41 98 -92 98c-42 0 -53 -11 -53 -50c0 -33 24 -54 89 -76l49 -21c7 42 7 45 7 49z" />
    <glyph glyph-name="Y" unicode="Y" horiz-adv-x="276" 
d="M298 263c0 -60 -54 -106 -120 -106c-90 0 -204 79 -204 144c0 13 13 27 40 41c97 51 119 67 119 114c0 16 -30 55 -47 55c-14 0 -50 -18 -65 -31l-43 41c43 26 48 28 66 28c40 0 127 -55 127 -122c0 -47 -16 -62 -95 -121c-22 -17 -33 -33 -33 -48c0 -31 21 -47 80 -47
c68 0 143 34 151 70c3 3 7 5 10 5c6 0 14 -13 14 -23z" />
    <glyph glyph-name="Z" unicode="Z" horiz-adv-x="520" 
d="M528 199c0 -8 -4 -12 -10 -12c-8 0 -26 10 -54 31c-29 20 -47 30 -55 30c-45 0 -76 -21 -93 -64c-11 -40 -23 -79 -35 -119c-19 -43 -56 -64 -108 -64s-153 85 -211 180h7c17 -12 39 -32 65 -60c61 -67 85 -83 125 -83c57 0 99 82 99 191c0 48 -54 94 -111 94
c-28 0 -33 -3 -73 -27c-1 0 -14 19 -35 49c19 18 43 31 62 31c59 0 72 -9 180 -105c17 19 50 32 97 38v243c43 -28 59 -38 61 -41v-215c85 -65 89 -68 89 -97z" />
    <glyph glyph-name="bracketleft" unicode="[" horiz-adv-x="479" 
d="M358 239c0 -141 -70 -240 -172 -240c-82 0 -187 96 -187 185c0 44 23 91 67 140c-61 81 -67 91 -67 138c0 52 39 90 90 90c7 0 25 -23 44 -53c-18 -9 -37 -17 -55 -25c-17 -11 -25 -35 -25 -71c18 -54 24 -66 36 -66c6 0 8 1 46 18c9 0 19 -13 44 -52
c-28 -21 -55 -42 -83 -62c-19 -23 -28 -52 -28 -87c0 -71 26 -101 85 -101c1 0 2 0 2 1c92 0 163 110 163 249c0 51 -13 87 -75 236c-18 43 -27 78 -27 104c0 58 20 108 48 113c25 -24 37 -36 47 -48c-36 -8 -55 -43 -55 -100c0 -26 8 -60 26 -102c63 -151 76 -189 76 -267z
" />
    <glyph glyph-name="backslash" unicode="\" 
d="M-19 -124c-46 72 -103 116 -152 116c-24 -4 -25 -5 -25 -15c0 -20 12 -35 28 -35c10 2 11 2 17 2c21 0 25 -2 132 -68z" />
    <glyph glyph-name="bracketright" unicode="]" horiz-adv-x="462" 
d="M385 141c0 -73 -86 -144 -172 -144c-33 0 -115 65 -158 148c-37 73 -56 162 -56 269c0 166 99 323 196 323c65 0 134 -52 168 -126c-40 38 -87 56 -142 56c-122 0 -181 -191 -181 -338c0 -160 70 -280 163 -280c81 0 127 44 127 122c0 75 -19 109 -62 109
c-13 0 -20 -1 -48 -8c-9 0 -13 13 -25 57c74 0 123 46 123 119c0 24 -35 51 -72 56c-14 0 -21 -4 -58 -24c-11 0 -35 27 -35 36c0 15 34 35 60 35c69 0 153 -91 153 -165c0 -50 -15 -80 -48 -97c54 -64 67 -94 67 -148z" />
    <glyph glyph-name="asciicircum" unicode="^" horiz-adv-x="316" 
d="M347 251c0 -66 -89 -154 -138 -154c-96 0 -200 91 -200 171c0 25 5 35 32 82c-42 41 -58 70 -58 104c0 55 46 93 123 101c11 0 30 -14 52 -44c-65 0 -114 -37 -114 -86c0 -40 6 -56 22 -56c55 17 57 17 68 17c9 0 15 0 17 -2c4 -9 13 -22 27 -38c-59 -20 -68 -23 -84 -47
c-14 -21 -21 -51 -21 -88c0 -32 44 -66 85 -66c60 0 145 85 161 144c20 0 22 -7 28 -38z" />
    <glyph glyph-name="underscore" unicode="_" 
d="M-202 -84l-46 -47l-45 47l45 48z" />
    <glyph glyph-name="grave" unicode="`" horiz-adv-x="657" 
d="M356 354c0 102 -86 198 -172 198c-19 0 -32 -7 -47 -24c0 -10 13 -23 47 -45c41 12 45 13 57 13c40 0 67 -40 67 -93c0 -76 -50 -154 -99 -154c-18 0 -32 8 -72 38l-39 30c54 -77 88 -103 146 -103c59 0 112 67 112 140zM234 -104c0 -36 -29 -65 -65 -65
c-42 0 -101 38 -158 121l27 -15c58 -50 64 -53 109 -60c26 0 47 23 47 52c0 34 -17 70 -51 107c-130 122 -146 139 -146 178v339c61 -41 64 -43 66 -45v-302c0 -47 10 -61 116 -174c33 -42 52 -90 55 -136zM598 67c0 -32 -35 -64 -70 -64c-17 0 -117 29 -117 70v478
c2 -1 11 -5 62 -37v-441c8 -15 17 -22 26 -22c15 0 28 17 40 49c40 -12 59 -22 59 -33z" />
    <glyph glyph-name="a" unicode="a" horiz-adv-x="244" 
d="M189 64c0 -32 -34 -65 -70 -65c-40 0 -116 43 -116 71v479c4 -1 41 -24 61 -38v-441c9 -14 18 -21 27 -21c14 0 28 17 40 49c40 -12 58 -23 58 -34z" />
    <glyph glyph-name="b" unicode="b" horiz-adv-x="611" 
d="M555 68c-11 -36 -42 -69 -67 -69c-22 0 -47 11 -77 34c-29 22 -43 42 -43 61v119c-48 0 -58 2 -99 33c-28 -106 -64 -152 -114 -152c-56 0 -183 104 -183 239c0 99 88 216 118 216c7 0 17 -10 43 -46c-68 -68 -104 -142 -104 -217c0 -49 62 -148 97 -148
c27 0 87 52 87 119c0 4 -9 12 -27 25c-17 13 -26 28 -26 46c0 16 22 38 37 38c27 0 50 -19 70 -57c20 -39 38 -58 54 -58c37 0 47 14 47 67v231l61 -46v-435c8 -10 16 -15 24 -15c15 0 26 13 50 48c28 -12 44 -23 52 -33z" />
    <glyph glyph-name="c" unicode="c" horiz-adv-x="633" 
d="M569 64c0 -21 -44 -64 -65 -64c-52 0 -124 37 -124 64v94c-50 -37 -88 -55 -119 -55c-29 0 -62 16 -100 48c-37 32 -61 48 -71 48c-3 -6 -12 -8 -25 -8c-51 0 -90 39 -90 92c0 19 13 35 30 35c27 0 29 -2 96 -57c9 0 26 14 52 42c33 35 50 73 50 114c0 49 -34 85 -82 85
c-12 0 -13 0 -77 -21c-6 0 -6 1 -42 43c23 21 44 30 74 30c94 0 175 -87 175 -183c0 -58 -24 -91 -110 -163c26 -40 48 -53 87 -56c72 0 152 77 152 149v253l61 -43v-447c5 -7 16 -20 27 -20s20 10 50 53c34 -19 51 -30 51 -33z" />
    <glyph glyph-name="d" unicode="d" horiz-adv-x="403" 
d="M337 81c0 -23 -81 -83 -144 -83c-103 0 -189 91 -189 201c0 65 13 77 75 133c-35 22 -75 82 -75 111c0 71 66 110 197 110c15 0 27 -16 46 -60c-119 0 -180 -18 -180 -82c0 -47 17 -62 49 -67c13 0 15 0 92 8c12 0 16 -7 34 -56c-63 -13 -101 -23 -114 -30
c-43 -23 -65 -67 -65 -130c0 -60 28 -88 86 -88c54 0 66 10 151 83c7 0 37 -41 37 -50z" />
    <glyph glyph-name="e" unicode="e" 
d="M-238 584l-48 39c-37 27 -71 42 -104 48c-20 0 -48 -17 -57 -34c-1 -2 -2 -3 -4 -3s-5 2 -54 32c13 27 41 39 96 43c33 0 59 -13 117 -56c6 -5 12 -9 19 -12l43 -35c6 -5 19 -19 51 -53h-27z" />
    <glyph glyph-name="f" unicode="f" horiz-adv-x="491" 
d="M399 14c-8 -6 -57 -17 -80 -17c-41 0 -80 21 -130 71l-6 3c0 -2 0 -2 -22 -3c-64 0 -129 42 -129 89c4 17 15 29 38 29c29 0 52 -8 71 -24c26 -25 28 -26 33 -26c38 0 76 51 76 103c0 35 -20 64 -43 64c-135 -34 -156 -39 -161 -39c-6 0 -28 17 -47 45
c107 25 135 34 156 44c-49 70 -54 78 -54 105c0 47 71 97 148 97c10 0 13 -4 40 -54c-9 -6 -30 -12 -63 -20c-51 -11 -77 -36 -77 -75c0 -21 19 -40 40 -40c7 0 13 2 170 44c6 0 15 -8 55 -50c-130 -31 -146 -36 -160 -46c49 -70 49 -71 49 -106c0 -56 -27 -96 -90 -132
c23 -33 36 -43 55 -43c22 0 53 14 71 32c21 -15 43 -34 60 -51z" />
    <glyph glyph-name="g" unicode="g" horiz-adv-x="529" 
d="M466 63c0 -12 -39 -65 -68 -65c-36 0 -114 30 -114 70v486c43 -35 51 -41 61 -48v-438c9 -17 18 -25 26 -25c9 0 15 8 43 54c43 -17 52 -22 52 -34zM213 307c0 135 -83 247 -180 247c-22 0 -43 -13 -62 -39c25 -29 27 -31 33 -36c36 26 47 32 79 32c31 0 78 -89 78 -140
c0 -117 -37 -175 -113 -175c-26 0 -37 11 -86 62c17 -77 61 -114 136 -114c59 0 115 78 115 163z" />
    <glyph glyph-name="h" unicode="h" horiz-adv-x="389" 
d="M315 272c0 -42 -49 -86 -109 -86c-57 0 -87 15 -143 73c80 -26 85 -28 105 -28c51 0 77 22 77 65s-25 59 -134 130c-32 22 -48 43 -48 64c0 36 91 64 130 64c6 0 11 -8 29 -53c-70 -19 -86 -26 -86 -45c0 -9 16 -23 47 -42c103 -64 132 -93 132 -142zM296 47
c0 -24 -38 -49 -76 -49c-42 0 -83 21 -138 71l2 4c46 -24 74 -34 90 -34c45 0 69 12 69 32c0 25 -46 44 -190 85c-52 13 -86 65 -86 131c0 44 98 102 119 102c8 0 32 -40 32 -54c-82 -58 -89 -63 -89 -82c0 -55 37 -69 198 -127c46 -20 69 -47 69 -79z" />
    <glyph glyph-name="i" unicode="i" horiz-adv-x="271" 
d="M128 101c39 -12 58 -23 58 -33c0 -33 -35 -65 -70 -65c-41 0 -117 42 -117 70v480c0 187 29 244 130 244c52 0 53 0 335 -187c-45 8 -104 31 -170 66c-62 34 -128 57 -163 57c-41 0 -70 -47 -70 -113v-552c8 -12 17 -18 25 -18c16 0 30 21 42 51z" />
    <glyph glyph-name="j" unicode="j" horiz-adv-x="585" 
d="M509 506c0 -9 -24 -40 -108 -145c-25 -32 -37 -50 -37 -53c43 -69 65 -133 65 -192c0 -62 -50 -112 -113 -112c-70 0 -143 76 -143 149c0 27 16 50 127 192c0 23 -105 147 -168 147c49 -86 51 -90 51 -124c0 -58 -28 -97 -69 -97c-73 0 -146 91 -146 182
c0 57 50 102 114 102c88 0 118 -29 234 -186c15 14 32 36 141 185c46 -35 52 -40 52 -48zM383 176c0 26 -8 49 -39 103c-98 -126 -118 -151 -118 -176s33 -49 63 -49c49 0 94 58 94 122zM139 420c0 36 -21 60 -40 60c-36 0 -66 -53 -66 -104c0 -44 6 -57 26 -57
c58 0 80 29 80 101z" />
    <glyph glyph-name="k" unicode="k" horiz-adv-x="480" 
d="M409 309c-28 25 -46 40 -60 47c-116 -38 -138 -43 -148 -43c-14 0 -53 54 -53 77c0 27 20 51 59 73c25 14 43 26 53 36c-39 52 -40 53 -46 57c-50 -13 -128 -72 -128 -118c0 -33 17 -54 89 -137c-22 -14 -36 -18 -176 -63c17 -16 18 -16 62 -47c103 36 155 52 168 52
c16 0 27 -27 31 -71c0 -55 -11 -69 -62 -113c-9 -8 -28 -12 -57 -12c-48 0 -107 11 -171 40l116 -73c43 -11 45 -11 100 -11c65 0 129 68 129 141c0 14 -15 55 -40 84l-22 27c31 15 53 22 156 54z" />
    <glyph glyph-name="l" unicode="l" horiz-adv-x="587" 
d="M533 66c0 -41 -64 -69 -75 -69c-43 0 -113 37 -113 69v191c-94 -30 -155 -48 -162 -48c-10 0 -16 7 -52 56c186 56 214 67 214 94v192c21 -8 41 -21 64 -40v-445c4 -15 11 -22 19 -22c14 0 32 22 44 54c23 -6 57 -24 61 -32zM308 54c-22 -20 -59 -32 -100 -32
c-99 0 -212 150 -212 281c0 113 98 248 187 248c3 0 5 -3 36 -56c-105 -48 -162 -148 -162 -286c0 -61 46 -141 141 -141l74 39c1 0 2 -2 36 -53z" />
    <glyph glyph-name="m" unicode="m" horiz-adv-x="565" 
d="M509 68c0 -24 -43 -68 -71 -68c-52 0 -117 35 -117 68v131h-188c0 -60 -15 -97 -38 -97c-47 0 -114 73 -114 119c0 28 20 30 82 36v217c0 16 -6 25 -17 25c-16 0 -30 -22 -37 -57c-40 24 -62 40 -62 46c0 19 27 64 52 64c65 0 99 -25 129 -97v-194h193v291l62 -44v-440
c11 -17 21 -25 31 -25c14 0 27 18 39 54c22 -4 56 -23 56 -29z" />
    <glyph glyph-name="n" unicode="n" horiz-adv-x="541" 
d="M482 68c0 -32 -41 -70 -78 -70c-39 0 -109 45 -109 70v227l-131 -6c-21 -4 -32 -9 -32 -14c23 -41 24 -54 27 -93c0 -27 -14 -41 -42 -41c-64 0 -155 78 -155 142c0 55 43 71 142 71h191v195c26 -12 42 -21 63 -35v-446c7 -18 14 -25 23 -25c11 0 21 11 44 54
c31 -12 57 -25 57 -29zM116 213c0 -19 -7 -29 -20 -32c-41 7 -48 34 -50 50c0 23 13 38 32 44c31 -6 33 -9 38 -62z" />
    <glyph glyph-name="o" unicode="o" horiz-adv-x="244" 
d="M189 64c0 -32 -34 -65 -70 -65c-40 0 -116 43 -116 71v479c4 -1 41 -24 61 -38v-441c9 -14 18 -21 27 -21c14 0 28 17 40 49c40 -12 58 -23 58 -34zM-18 584l-53 39c-36 24 -93 50 -115 50c-21 0 -48 -14 -64 -35c-1 -2 -3 -2 -6 -2c-1 0 -3 0 -59 31c12 26 50 39 107 44
c36 0 40 -2 151 -70l48 -34c9 -7 28 -25 57 -53h-30z" />
    <glyph glyph-name="p" unicode="p" horiz-adv-x="510" 
d="M458 64c0 -19 -44 -66 -70 -66c-21 0 -115 29 -115 66v150c-61 -63 -80 -77 -107 -79c-53 0 -141 70 -141 115v236c0 27 -1 28 -8 28c-11 0 -17 -6 -20 -16c-5 -26 -9 -31 -15 -31c-14 0 -55 21 -55 31c0 15 38 55 60 55c49 0 95 -48 109 -114v-235c12 -16 21 -21 37 -21
c29 0 124 84 139 143v225c30 -18 52 -33 64 -45v-442c7 -14 14 -20 22 -20c9 0 17 9 41 53c9 0 59 -20 59 -33z" />
    <glyph glyph-name="q" unicode="q" horiz-adv-x="593" 
d="M536 63c0 -18 -38 -66 -66 -66c-50 0 -119 41 -119 72v190c-21 -8 -40 -12 -62 -12c-15 0 -23 1 -33 4c0 -77 -47 -182 -92 -182c-24 0 -43 3 -57 10c-78 55 -95 80 -95 187l2 195c0 31 -1 34 -22 38c-8 -6 -9 -8 -21 -38c-26 9 -41 17 -41 32c0 25 36 56 62 56
c35 0 81 -68 84 -155c-1 -101 -2 -121 -3 -148c0 -90 14 -130 45 -130c62 0 82 65 82 253c43 -15 44 -15 58 -21l-2 -74c43 0 59 6 76 29c13 18 19 35 19 51v195c28 -16 43 -25 60 -38v-448c9 -9 18 -14 26 -14c16 0 28 12 49 47c44 -22 50 -26 50 -33z" />
    <glyph glyph-name="r" unicode="r" horiz-adv-x="414" 
d="M347 38c0 -22 -40 -41 -87 -41c-43 0 -52 9 -146 164c-98 8 -142 38 -142 98c0 22 29 48 52 48c24 0 45 -11 62 -33c18 -21 29 -31 34 -31c58 0 118 92 118 181c0 36 -48 75 -72 75c-40 0 -48 -4 -106 -35c-8 0 -39 36 -39 50s49 40 76 40c108 0 191 -79 191 -180
c0 -51 -19 -96 -57 -136c-6 -6 -33 -28 -82 -65c39 -94 57 -122 89 -122c21 0 38 5 51 17c13 11 23 16 29 16c11 0 29 -36 29 -46z" />
    <glyph glyph-name="s" unicode="s" horiz-adv-x="637" 
d="M186 219c-11 -9 -50 -38 -62 -46c38 -94 56 -122 89 -122c21 0 38 5 51 17c13 11 22 16 28 16c11 0 29 -36 29 -46c0 -22 -39 -41 -87 -41c-43 0 -51 9 -145 164c-99 8 -142 38 -142 98c0 22 28 48 51 48c25 0 46 -11 63 -33c17 -21 28 -31 33 -31c58 0 119 92 119 181
c0 36 -49 75 -73 75c-40 0 -48 -4 -106 -35c-7 0 -39 36 -39 50s49 40 76 40c109 0 191 -79 191 -180c0 -45 -13 -82 -41 -118c63 0 103 18 168 85v205c11 -5 15 -7 62 -38v-441c9 -14 18 -21 27 -21c14 0 27 16 40 48c40 -12 58 -22 58 -32c0 -31 -35 -65 -70 -65
c-41 0 -117 42 -117 70v181c-45 -28 -113 -34 -155 -34c-28 0 -34 1 -48 5z" />
    <glyph glyph-name="t" unicode="t" horiz-adv-x="499" 
d="M442 68c0 -20 -46 -67 -70 -67c-32 0 -113 39 -113 67v235h-71c-32 -4 -64 -8 -95 -12c-39 -13 -59 -45 -59 -98c0 -22 59 -112 124 -177c5 -6 7 -11 7 -13c0 -3 -1 -4 -2 -6c-114 70 -187 173 -187 265c0 74 69 107 215 107h68v181l61 -39v-443c8 -14 17 -22 26 -22
c11 0 18 9 45 51h1c12 0 50 -22 50 -29z" />
    <glyph glyph-name="u" unicode="u" 
d="M-446 -33c168 -77 211 -94 267 -94s88 19 88 54c0 9 -5 20 -27 20c-10 0 -34 -8 -73 -24c-15 -6 -26 -9 -32 -9c-8 -1 -25 22 -25 42c30 13 61 19 92 19c33 0 92 -8 92 -59c0 -55 -37 -85 -105 -85c-82 0 -203 53 -280 136h3z" />
    <glyph glyph-name="v" unicode="v" horiz-adv-x="524" 
d="M474 68c0 -18 -47 -68 -68 -68s-116 39 -116 68v83c-49 -34 -84 -54 -118 -54c-108 0 -203 93 -203 198c0 41 33 107 74 141c34 27 76 41 125 41c33 -38 38 -45 46 -57c-135 -22 -180 -53 -180 -152c0 -82 22 -112 83 -112c80 0 147 31 173 80v315c17 -9 46 -30 59 -40
v-443c9 -14 18 -19 25 -19c12 0 21 9 44 48c49 -15 56 -21 56 -29z" />
    <glyph glyph-name="w" unicode="w" horiz-adv-x="654" 
d="M605 68c-16 -38 -49 -70 -72 -70c-42 0 -114 43 -114 70v138h-145c0 -64 -7 -93 -29 -93c-12 0 -33 13 -62 38c-35 30 -52 59 -52 87c0 20 21 26 77 31v204c0 23 -5 38 -43 38c-63 0 -131 -110 -131 -212c0 -124 45 -224 131 -295c-2 -4 -4 -5 -6 -5
c-24 0 -172 122 -172 323c0 113 75 227 148 227c47 0 139 -68 139 -108v-175l145 -1v284c31 -16 46 -26 61 -38v-443c9 -14 18 -22 27 -22c11 0 15 4 48 47c22 0 35 -9 50 -25z" />
    <glyph glyph-name="x" unicode="x" horiz-adv-x="588" 
d="M295 13c-16 -10 -19 -11 -48 -14c-28 0 -52 13 -74 38c-19 29 -39 57 -59 86c-92 4 -133 32 -133 89c0 20 17 38 37 38c40 0 52 -10 93 -55c1 -1 2 -1 4 -1c17 0 106 78 106 123c0 5 -17 16 -51 33c-107 52 -146 88 -146 134c0 35 33 67 74 67c87 0 197 -108 197 -191
c0 -103 -44 -167 -154 -227c33 -69 42 -84 62 -84c21 0 23 1 45 21c8 0 36 -34 47 -57zM238 400c0 54 -41 98 -92 98c-42 0 -53 -11 -53 -50c0 -33 24 -54 89 -76l49 -21c7 43 7 43 7 49zM539 64c0 -31 -34 -65 -70 -65c-17 0 -117 30 -117 70v479c1 0 40 -24 62 -38v-441
c8 -14 18 -21 27 -21c13 0 27 17 40 49c40 -12 58 -22 58 -33z" />
    <glyph glyph-name="y" unicode="y" horiz-adv-x="520" 
d="M461 69c-5 -33 -49 -69 -79 -69c-38 0 -108 43 -108 69v127c-33 -26 -64 -39 -96 -39c-90 0 -204 79 -204 144c0 13 13 27 40 41c97 51 119 67 119 114c0 16 -30 55 -47 55c-14 0 -50 -18 -65 -31l-43 41c43 26 48 28 66 28c40 0 127 -55 127 -122
c0 -47 -16 -62 -95 -121c-22 -17 -33 -33 -33 -48c0 -31 21 -47 80 -47c68 0 143 34 151 70v262c22 -12 45 -28 62 -41v-442c6 -17 13 -26 22 -26c14 0 32 23 48 60c32 -10 46 -16 55 -25z" />
    <glyph glyph-name="z" unicode="z" horiz-adv-x="619" 
d="M548 112c0 -46 -61 -111 -109 -111c-6 0 -15 11 -36 45c65 9 96 50 96 121c0 55 -26 81 -90 81c-45 0 -76 -21 -93 -64c-11 -40 -23 -79 -35 -119c-19 -43 -56 -64 -108 -64s-153 85 -211 180h7c17 -12 39 -32 65 -60c61 -67 85 -83 125 -83c57 0 99 82 99 191
c0 48 -54 94 -111 94c-28 0 -33 -3 -73 -27c-1 0 -14 19 -35 49c19 18 43 31 62 31c59 0 72 -9 180 -105c17 19 50 32 97 38v243c43 -28 59 -38 61 -41v-222c24 -20 46 -40 71 -59c25 -29 38 -69 38 -118z" />
    <glyph glyph-name="braceleft" unicode="{" horiz-adv-x="463" 
d="M306 768c70 0 139 -67 156 -147c-41 57 -80 84 -122 84c-68 0 -79 -65 -79 -97c0 -26 9 -60 27 -102c62 -151 76 -189 76 -267c0 -141 -71 -240 -172 -240c-82 0 -187 96 -187 185c0 43 25 96 66 140c-60 81 -66 91 -66 138c0 53 40 90 89 90c7 0 25 -23 44 -53
c-18 -9 -37 -17 -55 -25c-17 -11 -25 -35 -25 -71c17 -54 24 -66 37 -66c5 0 8 1 43 18h2c9 0 17 -11 44 -52c-28 -21 -55 -42 -83 -62c-19 -23 -28 -52 -28 -87c0 -69 27 -101 83 -101c2 0 3 0 5 1c90 0 162 110 162 249c0 34 -9 74 -26 120c-67 157 -75 179 -75 220
c0 78 32 125 84 125z" />
    <glyph glyph-name="bar" unicode="|" horiz-adv-x="541" 
d="M302 383v167l61 -39v-443c8 -14 17 -22 25 -22c11 0 18 9 46 51h1c11 0 49 -22 49 -29c0 -13 -40 -67 -70 -67c-35 0 -112 43 -112 67v235h-71l-96 -12c-39 -13 -58 -45 -58 -98c0 -26 72 -128 122 -175c6 -7 9 -12 9 -16c0 -2 -1 -3 -2 -5c-99 59 -187 164 -187 265
c0 33 11 54 38 73h-60l-48 48h353z" />
    <glyph glyph-name="braceright" unicode="}" horiz-adv-x="660" 
d="M604 68c0 -10 -49 -69 -70 -69c-60 0 -117 34 -117 69v531c0 63 -35 85 -132 85c-160 0 -267 -139 -267 -346c0 -133 97 -292 160 -292c77 0 140 68 140 154c0 70 -11 93 -44 93c-27 -3 -38 -4 -41 -4c-35 0 -42 8 -60 62c85 0 130 37 130 108c0 13 -40 40 -59 40
c-24 0 -57 -10 -71 -21c-2 -1 -3 -1 -5 -1c-11 0 -42 34 -42 44c0 12 37 31 62 31c93 0 157 -67 157 -166c0 -32 -18 -60 -49 -73c57 -44 73 -83 73 -136c0 -85 -64 -178 -140 -178c-58 0 -146 67 -193 150c-41 74 -61 166 -61 276c0 117 54 218 151 279c37 24 69 35 98 35
c154 0 255 -90 255 -228v-443c13 -17 21 -23 30 -23c10 0 14 6 35 52c0 1 1 1 3 1c11 0 57 -21 57 -30z" />
    <glyph glyph-name="asciitilde" unicode="~" horiz-adv-x="368" 
d="M329 354c0 102 -86 198 -172 198c-19 0 -34 -8 -47 -24c0 -10 14 -23 47 -45c41 12 45 13 57 13c40 0 67 -40 67 -93c0 -75 -50 -154 -100 -154c-17 0 -18 1 -71 38l-27 15c51 -73 75 -88 133 -88c61 0 113 69 113 140zM287 -105c0 -34 -30 -64 -64 -64
c-49 0 -108 45 -160 121l27 -15c59 -50 65 -53 109 -60c26 0 47 23 47 52c0 34 -21 70 -64 107c-163 121 -185 140 -185 178v339c61 -41 64 -43 66 -45v-302c0 -47 14 -61 155 -174c41 -41 66 -87 69 -137z" />
    <glyph glyph-name="quotesinglbase" unicode="&#x201a;" horiz-adv-x="928" 
d="M645 67c0 -32 -33 -68 -69 -68c-43 0 -118 41 -118 68v157c-51 23 -65 30 -85 49c-5 -34 -11 -66 -17 -97c-15 -50 -37 -74 -67 -74c-48 0 -55 3 -163 72c-1 -1 -42 -10 -44 -10c-49 0 -91 55 -91 93c0 28 11 39 37 39c29 0 56 -15 90 -51c46 27 96 119 96 174
c0 33 -38 83 -65 83c-17 0 -19 -1 -103 -28c-19 18 -23 22 -31 35c11 24 52 43 92 43c67 0 148 -99 148 -181c0 -41 -29 -104 -94 -173c45 -42 62 -52 92 -54c48 0 69 76 69 255h7c40 -21 43 -23 50 -28c0 -48 -2 -68 -6 -80c17 -6 18 -6 41 -10c41 0 45 14 45 65l-1 206
c9 -5 10 -5 62 -43l1 -455c7 -11 14 -17 22 -17c13 0 27 18 44 59c40 -11 58 -20 58 -29zM870 64c0 -31 -34 -65 -71 -65c-16 0 -116 30 -116 70v479c4 -2 5 -2 62 -38v-441c9 -14 18 -21 27 -21c13 0 27 17 40 49c40 -12 58 -22 58 -33z" />
    <glyph glyph-name="florin" unicode="&#x192;" horiz-adv-x="711" 
d="M645 67c0 -32 -33 -68 -69 -68c-43 0 -118 41 -118 68v157c-51 23 -65 30 -85 49c-5 -34 -11 -66 -17 -97c-15 -50 -37 -74 -67 -74c-48 0 -55 3 -163 72c-1 -1 -42 -10 -44 -10c-49 0 -91 55 -91 93c0 28 11 39 37 39c29 0 56 -15 90 -51c46 27 96 119 96 174
c0 33 -38 83 -65 83c-17 0 -19 -1 -103 -28c-19 18 -23 22 -31 35c11 24 52 43 92 43c67 0 148 -99 148 -181c0 -41 -29 -104 -94 -173c45 -42 62 -52 92 -54c48 0 69 76 69 255h7c40 -21 43 -23 50 -28c0 -48 -2 -68 -6 -80c17 -6 18 -6 41 -10c41 0 45 14 45 65l-1 206
c9 -5 10 -5 62 -43l1 -455c7 -11 14 -17 22 -17c13 0 27 18 44 59c40 -11 58 -20 58 -29zM438 583l-53 38c-48 32 -84 44 -116 49c-21 0 -45 -11 -63 -34c-1 -2 -3 -3 -5 -3s-6 1 -11 4l-49 27c13 26 45 39 108 44c36 0 36 0 150 -69l48 -35c12 -9 33 -28 57 -52h-30z" />
    <glyph glyph-name="quotedblbase" unicode="&#x201e;" horiz-adv-x="711" 
d="M645 67c0 -32 -33 -68 -69 -68c-43 0 -118 41 -118 68v157c-51 23 -65 30 -85 49c-5 -34 -11 -66 -17 -97c-15 -50 -37 -74 -67 -74c-48 0 -55 3 -163 72c-1 -1 -42 -10 -44 -10c-49 0 -91 55 -91 93c0 28 11 39 37 39c29 0 56 -15 90 -51c46 27 96 119 96 174
c0 33 -38 83 -65 83c-17 0 -19 -1 -103 -28c-19 18 -23 22 -31 35c11 24 52 43 92 43c67 0 148 -99 148 -181c0 -41 -29 -104 -94 -173c45 -42 62 -52 92 -54c48 0 69 76 69 255h7c40 -21 43 -23 50 -28c0 -48 -2 -68 -6 -80c17 -6 18 -6 41 -10c41 0 45 14 45 65l-1 206
c9 -5 10 -5 62 -43l1 -455c7 -11 14 -17 22 -17c13 0 27 18 44 59c40 -11 58 -20 58 -29zM509 552h-40c-109 72 -160 98 -211 106c-25 0 -28 -3 -60 -42c-43 27 -51 32 -60 37c21 35 25 39 78 42c48 0 112 -26 172 -69l92 -59l-17 28l-39 53c-28 36 -75 88 -110 88
c-25 0 -37 -3 -57 -15c-5 0 -13 8 -48 51c12 12 13 12 58 15c83 0 139 -52 242 -235z" />
    <glyph glyph-name="ellipsis" unicode="&#x2026;" horiz-adv-x="928" 
d="M645 67c0 -32 -33 -68 -69 -68c-43 0 -118 41 -118 68v157c-51 23 -65 30 -85 49c-5 -34 -11 -66 -17 -97c-15 -50 -37 -74 -67 -74c-48 0 -55 3 -163 72c-1 -1 -42 -10 -44 -10c-49 0 -91 55 -91 93c0 28 11 39 37 39c29 0 56 -15 90 -51c46 27 96 119 96 174
c0 33 -38 83 -65 83c-17 0 -19 -1 -103 -28c-19 18 -23 22 -31 35c11 24 52 43 92 43c67 0 148 -99 148 -181c0 -41 -29 -104 -94 -173c45 -42 62 -52 92 -54c48 0 69 76 69 255h7c40 -21 43 -23 50 -28c0 -48 -2 -68 -6 -80c17 -6 18 -6 41 -10c41 0 45 14 45 65l-1 206
c9 -5 10 -5 62 -43l1 -455c7 -11 14 -17 22 -17c13 0 27 18 44 59c40 -11 58 -20 58 -29zM870 64c0 -31 -34 -65 -71 -65c-16 0 -116 30 -116 70v479c4 -2 5 -2 62 -38v-441c9 -14 18 -21 27 -21c13 0 27 17 40 49c40 -12 58 -22 58 -33zM497 667c-22 0 -47 -12 -64 -35
c-1 -2 -3 -3 -5 -3c-1 0 -17 8 -60 32c12 25 45 39 108 43c39 0 56 -8 130 -56c6 -5 13 -9 20 -12l48 -35c7 -5 15 -12 57 -53h-30c-51 43 -150 119 -204 119z" />
    <glyph glyph-name="dagger" unicode="&#x2020;" horiz-adv-x="928" 
d="M645 67c0 -32 -33 -68 -69 -68c-43 0 -118 41 -118 68v157c-51 23 -65 30 -85 49c-5 -34 -11 -66 -17 -97c-15 -50 -37 -74 -67 -74c-48 0 -55 3 -163 72c-1 -1 -42 -10 -44 -10c-49 0 -91 55 -91 93c0 28 11 39 37 39c29 0 56 -15 90 -51c46 27 96 119 96 174
c0 33 -38 83 -65 83c-17 0 -19 -1 -103 -28c-19 18 -23 22 -31 35c11 24 52 43 92 43c67 0 148 -99 148 -181c0 -41 -29 -104 -94 -173c45 -42 62 -52 92 -54c48 0 69 76 69 255h7c40 -21 43 -23 50 -28c0 -48 -2 -68 -6 -80c17 -6 18 -6 41 -10c41 0 45 14 45 65l-1 206
c9 -5 10 -5 62 -43l1 -455c7 -11 14 -17 22 -17c13 0 27 18 44 59c40 -11 58 -20 58 -29zM870 64c0 -31 -34 -65 -71 -65c-16 0 -116 30 -116 70v479c4 -2 5 -2 62 -38v-441c9 -14 18 -21 27 -21c13 0 27 17 40 49c40 -12 58 -22 58 -33zM734 552h-41
c-100 67 -155 97 -211 106c-25 0 -29 -5 -60 -42c-15 11 -29 21 -61 37c5 7 7 10 7 11c16 25 25 28 73 31c41 0 73 -13 117 -36l106 -67l40 -25l-17 28c-83 107 -112 141 -148 141c-28 0 -39 -3 -58 -15c-3 0 -4 1 -48 51c12 12 13 12 58 15c64 0 102 -27 160 -108
c7 -9 12 -15 17 -20l32 -48c14 -20 22 -35 34 -59z" />
    <glyph glyph-name="daggerdbl" unicode="&#x2021;" horiz-adv-x="711" 
d="M645 67c0 -32 -33 -68 -69 -68c-43 0 -118 41 -118 68v157c-51 23 -65 30 -85 49c-5 -34 -11 -66 -17 -97c-15 -50 -37 -74 -67 -74c-48 0 -55 3 -163 72c-1 -1 -42 -10 -44 -10c-49 0 -91 55 -91 93c0 28 11 39 37 39c29 0 56 -15 90 -51c46 27 96 119 96 174
c0 33 -38 83 -65 83c-17 0 -19 -1 -103 -28c-19 18 -23 22 -31 35c11 24 52 43 92 43c67 0 148 -99 148 -181c0 -41 -29 -104 -94 -173c45 -42 62 -52 92 -54c48 0 69 76 69 255h7c40 -21 43 -23 50 -28c0 -48 -2 -68 -6 -80c17 -6 18 -6 41 -10c41 0 45 14 45 65l-1 206
c9 -5 10 -5 62 -43l1 -455c7 -11 14 -17 22 -17c13 0 27 18 44 59c40 -11 58 -20 58 -29zM539 706l-46 -46l-45 46l45 48z" />
    <glyph glyph-name="circumflex" unicode="&#x2c6;" horiz-adv-x="747" 
d="M645 67c0 -32 -33 -68 -69 -68c-43 0 -118 41 -118 68v157c-51 23 -65 30 -85 49c-5 -34 -11 -66 -17 -97c-15 -50 -37 -74 -67 -74c-48 0 -55 3 -163 72c-1 -1 -42 -10 -44 -10c-49 0 -91 55 -91 93c0 28 11 39 37 39c29 0 56 -15 90 -51c46 27 96 119 96 174
c0 33 -38 83 -65 83c-17 0 -19 -1 -103 -28c-19 18 -23 22 -31 35c11 24 52 43 92 43c67 0 148 -99 148 -181c0 -41 -29 -104 -94 -173c45 -42 62 -52 92 -54c48 0 69 76 69 255h7c40 -21 43 -23 50 -28c0 -48 -2 -68 -6 -80c17 -6 18 -6 41 -10c41 0 45 14 45 65l-1 206
c9 -5 10 -5 62 -43l1 -455c7 -11 14 -17 22 -17c13 0 27 18 44 59c40 -11 58 -20 58 -29zM691 444l-46 -46l-45 46l45 49zM691 163l-46 -48l-45 48l45 48z" />
    <glyph glyph-name="perthousand" unicode="&#x2030;" horiz-adv-x="438" 
d="M371 330l-35 -38l-37 38l37 39zM315 129c0 32 -16 64 -47 97c-127 109 -137 119 -137 146c0 29 16 45 117 126c-23 23 -38 36 -64 53c-15 0 -115 -89 -115 -129c0 -46 12 -62 132 -181c31 -34 47 -64 47 -89c0 -52 -41 -90 -95 -90c-66 0 -108 33 -186 102
c-32 25 -33 26 -38 28c8 -33 42 -73 102 -119c64 -49 119 -74 164 -74c61 0 120 62 120 130z" />
    <glyph glyph-name="Scaron" unicode="&#x160;" horiz-adv-x="416" 
d="M218 -69l-36 -39l-38 39l37 39zM326 129c0 32 -16 64 -48 97c-127 109 -136 119 -136 146c0 29 16 45 116 126c-22 23 -38 36 -64 53c-14 0 -114 -89 -114 -129c0 -46 12 -62 131 -181c32 -34 47 -64 47 -89c0 -52 -40 -90 -95 -90c-66 0 -108 33 -185 102
c-33 25 -33 26 -38 28c7 -33 41 -73 102 -119c64 -49 118 -74 164 -74c61 0 120 62 120 130z" />
    <glyph glyph-name="guilsinglleft" unicode="&#x2039;" horiz-adv-x="641" 
d="M572 70c0 -19 -50 -72 -68 -72c-47 0 -116 34 -116 72v138c-7 -2 -13 -2 -20 -2c-18 0 -22 2 -81 41c-18 -106 -75 -169 -153 -169c-52 0 -106 36 -176 110h13c58 -46 76 -57 140 -57c77 0 134 69 134 162c0 67 -27 93 -96 93c-30 0 -34 -1 -103 -28c-9 0 -14 6 -44 48
c27 27 69 43 111 43c92 0 142 -55 179 -180c9 -4 11 -5 36 -7c31 0 60 19 60 44v246l60 -41v-441c11 -16 19 -22 28 -22c12 0 16 4 39 49c21 -14 35 -20 57 -27z" />
    <glyph glyph-name="OE" unicode="&#x152;" horiz-adv-x="391" 
d="M409 266c0 -6 -2 -17 -21 -34c-11 -3 -21 -4 -32 -4c-23 0 -38 4 -69 19c-18 -106 -75 -169 -153 -169c-52 0 -106 36 -176 110h13c58 -46 76 -57 140 -57c77 0 134 69 134 162c0 67 -27 93 -96 93c-30 0 -34 -1 -103 -28c-9 0 -14 6 -44 48c27 27 69 43 111 43
c92 0 142 -55 179 -180c10 -5 21 -7 31 -7c15 0 16 0 67 31c7 0 19 -17 19 -27z" />
    <glyph glyph-name="emdash" unicode="&#x2014;" horiz-adv-x="670" 
d="M533 560l-39 -39l-38 39l38 39zM571 521v-54c-30 -17 -56 -26 -78 -26c-43 0 -96 29 -155 85c108 -43 113 -43 153 -46c32 0 50 10 80 41zM535 158c-32 0 -69 17 -97 44c31 -5 43 -6 72 -8c33 0 49 14 49 50c0 34 -30 58 -86 68c-9 0 -38 -10 -86 -29
c-23 -9 -43 -14 -60 -14c-27 0 -40 2 -50 6c14 -5 16 -6 81 -45c32 -22 48 -54 48 -97c0 -59 -73 -132 -123 -132h-35c-80 0 -199 103 -249 217c102 -109 172 -162 227 -162c65 0 117 45 121 107c0 43 -67 110 -109 110c-18 0 -28 -4 -55 -18l-49 56c0 -1 0 -2 -1 -2
c111 25 163 63 163 119c0 51 -19 63 -90 63c-49 0 -50 -1 -99 -30c-3 3 -9 8 -56 49c31 25 67 39 105 39c78 0 141 -31 183 -88c17 -21 25 -41 25 -58c0 -55 -33 -80 -93 -99c0 -3 5 -4 39 -10c67 46 124 69 166 69c68 0 138 -61 138 -119c0 -47 -34 -86 -79 -86z" />
    <glyph glyph-name="tilde" unicode="&#x2dc;" horiz-adv-x="276" 
d="M28 70c-19 -6 -29 -18 -29 -33c0 -28 19 -33 32 -33c65 0 181 72 181 118c0 37 -9 45 -131 161c-24 24 -28 32 -31 72c0 15 6 34 19 58c50 88 50 88 50 100c0 14 -11 24 -25 24c-38 0 -87 -112 -91 -163c0 -52 9 -61 149 -194c7 -10 11 -19 11 -27
c0 -30 -42 -58 -135 -83z" />
    <glyph glyph-name="scaron" unicode="&#x161;" horiz-adv-x="486" 
d="M233 -1l-64 63v482l64 -63v-482z" />
    <glyph glyph-name="guilsinglright" unicode="&#x203a;" horiz-adv-x="563" 
d="M456 -2l-62 63v484l62 -63v-484zM269 -1l-63 63v482l63 -63v-482z" />
    <glyph glyph-name="oe" unicode="&#x153;" 
d="M-169 723l-47 -48l-47 48l47 46zM-124 676h1l-1 -66c-31 -17 -62 -31 -93 -31c-52 0 -119 37 -187 104c146 -55 147 -56 183 -57c39 0 59 10 97 50z" />
    <glyph glyph-name="exclamdown" unicode="&#xa1;" horiz-adv-x="572" 
d="M368 346c72 12 77 13 88 16c24 -20 39 -34 61 -56c-1 -1 -2 -1 -101 -16c73 -74 96 -105 96 -146c0 -76 -62 -141 -130 -141h-60c-7 3 -20 7 -39 11l-32 27c18 -9 21 -9 54 -12c81 0 151 63 151 143c-7 43 -8 43 -73 113c-151 -22 -175 -25 -192 -29
c42 -44 62 -79 62 -112c0 -73 -64 -141 -130 -141h-60c-7 3 -20 7 -39 11l-32 27c19 -9 21 -9 54 -12c81 0 152 63 152 143c0 36 -20 78 -32 78c-9 0 -22 -2 -110 -17c-13 9 -20 15 -56 51c85 15 92 16 107 22c-68 79 -83 100 -83 132c0 46 78 105 128 118c4 -3 5 -4 46 -57
c-10 -10 -28 -22 -53 -36c-40 -22 -59 -46 -59 -73c0 -21 37 -76 53 -77c17 0 90 10 195 27c-35 40 -51 66 -51 98c0 46 77 105 128 118c4 -3 5 -4 45 -57c-9 -10 -27 -22 -52 -36c-40 -22 -60 -46 -60 -73c0 -9 8 -23 24 -44z" />
    <glyph glyph-name="cent" unicode="&#xa2;" horiz-adv-x="393" 
d="M173 241c-17 -5 -25 -7 -118 -43c-44 31 -48 34 -63 48c101 34 115 39 142 55c-78 86 -89 108 -89 137c0 46 78 105 128 118c3 -2 18 -21 46 -57c-10 -10 -27 -22 -53 -36c-39 -22 -59 -46 -59 -73c0 -20 37 -75 53 -77c11 0 24 4 126 35c14 -7 21 -13 59 -47
c-48 -12 -92 -27 -133 -46l22 -27c21 -26 40 -65 40 -84c0 -74 -64 -141 -130 -141h-60c-7 3 -20 7 -39 11l-32 27c19 -9 21 -9 55 -12c80 0 151 63 151 143l-6 41l-89 -92l-35 37z" />
    <glyph glyph-name="currency" unicode="&#xa4;" horiz-adv-x="438" 
d="M245 168c-14 -2 -15 -2 -34 -3c-112 0 -210 65 -210 136c0 38 24 66 74 86c197 51 214 56 214 86c0 22 -28 36 -75 36c-29 0 -32 -1 -78 -11c-4 0 -10 5 -55 40c16 9 20 9 84 14c86 0 178 -53 178 -101c0 -39 -34 -53 -209 -101c-46 -17 -70 -40 -70 -70
c0 -44 33 -74 82 -74c70 0 92 10 203 65c8 0 34 -23 34 -34c0 -18 -47 -46 -104 -61c2 -4 3 -10 4 -22c0 -44 -25 -56 -162 -105c-36 -17 -54 -40 -54 -68c0 -47 31 -75 81 -75c72 0 88 7 204 63c9 0 33 -23 33 -34c0 -14 -20 -29 -60 -46s-77 -25 -111 -25
c-111 0 -211 64 -211 136c0 36 19 64 59 84c11 6 49 19 114 38c42 13 65 28 69 46z" />
    <glyph glyph-name="yen" unicode="&#xa5;" horiz-adv-x="438" 
d="M337 9c0 46 -43 77 -107 77c-95 0 -172 -41 -172 -99c0 -35 61 -80 106 -80c93 0 173 48 173 102zM122 174c-80 22 -135 73 -135 126c0 38 25 66 75 86c197 51 214 56 214 86c0 22 -28 35 -75 35c-28 0 -38 -1 -78 -11c-4 0 -11 5 -55 40c15 10 20 10 84 15
c97 0 178 -61 178 -102c0 -39 -32 -52 -208 -101c-47 -17 -70 -40 -70 -70c0 -44 31 -73 81 -73c70 0 87 8 204 64c9 0 32 -24 32 -33c0 -34 -109 -74 -191 -72c170 -80 220 -118 220 -177c0 -57 -87 -111 -184 -111c-94 0 -223 68 -223 127s73 107 189 123
c-37 24 -52 36 -58 48z" />
    <glyph glyph-name="brokenbar" unicode="&#xa6;" horiz-adv-x="916" 
d="M318 471c17 -24 25 -45 25 -63c0 -37 -26 -68 -77 -91c-45 -17 -88 -35 -132 -53c-46 -24 -70 -58 -70 -100c0 -61 32 -104 82 -104c71 0 87 11 203 91c10 0 34 -35 34 -48c0 -20 -21 -42 -61 -66s-77 -36 -111 -36c-111 0 -210 91 -210 194c0 54 24 95 74 123
c201 74 214 79 214 123c0 32 -27 50 -75 50c-30 0 -33 -1 -78 -15c-4 0 -11 7 -55 57c17 14 41 20 84 20c45 0 82 -16 111 -38c9 6 91 41 141 41c85 0 159 -60 159 -129c0 -47 -16 -62 -95 -121c-22 -17 -33 -33 -33 -48c0 -31 19 -41 80 -47c68 0 143 34 151 70v262
c10 -6 32 -18 62 -40v-443c6 -18 12 -26 22 -26c13 0 32 25 48 61c32 -10 46 -16 55 -25c-5 -34 -47 -69 -79 -69c-38 0 -108 42 -108 69v127c-32 -27 -63 -40 -96 -40c-90 0 -204 79 -204 145c0 13 13 26 40 41c97 51 119 67 119 113c0 24 -41 62 -78 62
c-21 0 -114 -30 -142 -47z" />
    <glyph glyph-name="section" unicode="&#xa7;" horiz-adv-x="438" 
d="M134 10c-85 27 -149 105 -149 185c0 54 25 95 74 123c201 74 214 79 214 123c0 32 -28 50 -75 50c-29 0 -32 -1 -78 -15c-5 0 -22 18 -54 57c16 14 40 20 83 20c52 0 97 -20 134 -59c30 -30 44 -59 44 -85c0 -39 -25 -69 -77 -92c-44 -18 -87 -35 -131 -53
c-47 -24 -70 -58 -70 -100c0 -61 32 -104 81 -104c71 0 88 11 204 91c9 0 33 -35 33 -48c0 -27 -48 -67 -106 -89l93 -87l-20 -16l-115 103l-117 -119l-46 44z" />
    <glyph glyph-name="copyright" unicode="&#xa9;" horiz-adv-x="485" 
d="M341 7c0 49 -45 87 -107 87c-30 0 -96 -18 -128 -38c-30 -18 -45 -42 -45 -70c0 -35 61 -80 107 -80c94 0 173 47 173 101zM341 298c0 46 -43 77 -107 77c-98 0 -173 -41 -173 -98c0 -35 61 -79 107 -79c92 0 173 47 173 100zM118 187c-77 29 -123 69 -123 106
c0 59 70 105 189 123c-48 34 -70 56 -70 75c0 33 61 62 133 62c14 -7 38 -23 64 -42c-91 0 -137 -14 -137 -41c0 -13 20 -29 59 -47c127 -59 168 -88 168 -146s-85 -111 -183 -111c-14 0 -28 1 -42 4c6 -11 28 -25 68 -44c119 -54 157 -85 157 -140
c0 -57 -84 -112 -183 -112c-100 0 -223 71 -223 128c0 59 70 104 189 123c-50 36 -59 45 -66 62z" />
    <glyph glyph-name="ordfeminine" unicode="&#xaa;" horiz-adv-x="976" 
d="M251 424c20 15 174 52 215 52c112 0 162 -23 162 -75c0 -36 -21 -69 -61 -100c-40 -30 -60 -53 -60 -68c0 -32 21 -47 80 -47c58 0 136 50 146 93v262c15 -7 31 -17 62 -40v-442c5 -18 13 -26 22 -26c14 0 33 24 48 60c33 -10 46 -16 55 -25c-5 -32 -48 -69 -79 -69
c-38 0 -108 42 -108 69v113c-33 -36 -59 -50 -90 -50c-90 0 -205 79 -205 145c0 13 13 24 38 33c84 30 111 44 111 92c0 12 -44 23 -92 23c-33 0 -178 -30 -202 -44c1 -2 2 -3 4 -5c-22 29 -22 30 -46 49zM406 158c0 -81 -85 -159 -183 -159c-97 0 -224 100 -224 182
c0 83 71 149 189 176c-49 49 -69 81 -69 107c0 47 61 88 132 88c13 -8 37 -30 64 -59c-91 0 -136 -22 -136 -60c0 -19 20 -42 59 -68c132 -88 168 -127 168 -207zM345 188c0 66 -43 110 -107 110c-96 0 -172 -60 -172 -140c0 -50 59 -114 106 -114c94 0 173 67 173 144z" />
    <glyph glyph-name="logicalnot" unicode="&#xac;" horiz-adv-x="434" 
d="M100 199c-75 33 -133 74 -141 102c3 -1 9 -4 19 -9c112 -69 130 -78 204 -82c54 0 95 26 95 63c0 18 -16 39 -46 62c-119 82 -133 96 -133 127c0 28 99 91 115 91c24 -11 40 -20 64 -37c-90 -49 -116 -68 -116 -88s17 -33 135 -103c32 -23 48 -45 48 -67
c0 -48 -58 -92 -120 -92c-11 0 -14 1 -38 5c-17 -12 -25 -24 -25 -35c0 -19 17 -33 135 -102c32 -24 48 -46 48 -68c0 -47 -58 -90 -120 -90c-86 0 -250 83 -265 134c13 -5 14 -6 100 -59c39 -21 78 -30 124 -32c54 0 94 25 94 63c0 18 -16 38 -46 62
c-127 88 -133 93 -133 142c0 5 1 9 2 13z" />
    <glyph glyph-name="macron" unicode="&#xaf;" horiz-adv-x="468" 
d="M353 -20c0 24 -9 29 -37 31c-44 0 -78 -27 -82 -65c0 -16 16 -28 44 -34c41 4 72 33 75 68zM353 286c0 22 -8 28 -37 31c-44 0 -78 -27 -82 -66c0 -17 15 -28 44 -33c39 0 72 32 75 68zM318 179c-24 -8 -33 -9 -90 -13c-122 0 -229 90 -229 153c0 48 50 87 126 99
c161 26 193 37 193 70c0 12 -6 13 -56 19c-12 0 -17 -1 -79 -6c-8 8 -12 12 -37 43c15 5 16 6 59 7c73 0 157 -53 157 -95c0 -34 -19 -41 -230 -88c-54 -19 -81 -48 -81 -85c0 -35 71 -86 122 -86c33 0 46 1 75 13c-43 24 -58 43 -58 71c0 37 39 63 94 63
c63 0 107 -35 107 -86c0 -26 -19 -52 -51 -69c15 -16 22 -29 22 -39c0 -32 -14 -37 -230 -88c-54 -19 -81 -48 -81 -85c0 -34 71 -86 122 -86c33 0 46 1 75 13c-42 23 -58 43 -58 71c0 38 38 64 94 64c62 0 107 -36 107 -87c0 -54 -68 -92 -163 -92c-122 0 -229 91 -229 153
c0 48 50 87 126 100c160 26 193 37 193 66z" />
    <glyph glyph-name="degree" unicode="&#xb0;" horiz-adv-x="927" 
d="M351 171c0 32 -10 44 -36 44c-66 0 -81 -75 -83 -91c0 -27 12 -41 44 -50c41 5 75 50 75 97zM287 521c36 19 105 35 130 35c85 0 159 -60 159 -129c0 -47 -16 -62 -95 -121c-22 -17 -33 -33 -33 -48c0 -31 19 -41 80 -47c68 0 143 34 151 70v262c10 -6 32 -18 62 -40
v-443c6 -18 12 -26 22 -26c13 0 32 25 48 61c32 -10 46 -16 55 -25c-5 -34 -47 -69 -79 -69c-38 0 -108 42 -108 69v127c-32 -27 -63 -40 -96 -40c-90 0 -204 79 -204 145c0 13 13 26 40 41c97 51 119 67 119 113c0 24 -41 62 -78 62c-20 0 -97 -19 -133 -35
c19 -23 32 -53 32 -70c0 -51 -24 -59 -230 -126c-53 -27 -80 -67 -80 -121c0 -49 71 -122 122 -122c34 0 50 4 74 18c-41 33 -57 61 -57 101c0 55 39 91 93 91c62 0 107 -54 107 -125c0 -75 -67 -130 -162 -130c-110 0 -229 116 -229 219c0 69 49 123 126 141
c165 39 193 55 193 100c0 19 -19 28 -57 28c-17 0 -37 -2 -79 -9c-8 12 -35 59 -36 61c16 8 17 8 59 10c29 0 58 -9 84 -28z" />
    <glyph glyph-name="twosuperior" unicode="&#xb2;" horiz-adv-x="321" 
d="M329 303h-98l-96 -12c-39 -13 -58 -45 -58 -98c0 -26 72 -128 122 -175c6 -7 9 -12 9 -16c0 -2 -1 -3 -2 -5c-99 59 -187 164 -187 265c0 33 11 54 38 73h-60l-48 48h380c14 -13 23 -29 23 -42c0 -15 -8 -27 -23 -38z" />
    <glyph glyph-name="acute" unicode="&#xb4;" horiz-adv-x="475" 
d="M278 104c-20 25 -27 38 -27 50c0 14 21 30 39 30c31 0 74 -33 74 -58s-2 -36 -7 -45c0 -4 16 -16 49 -35s50 -40 50 -63c0 -13 -9 -29 -16 -29c-10 0 -15 2 -59 25c4 5 5 7 7 25c0 25 -25 51 -49 51l-24 -7c-36 -31 -81 -50 -122 -50c-103 0 -189 83 -189 181
c0 59 15 72 75 120c-35 19 -75 73 -75 100c0 23 17 43 52 60c42 12 83 25 125 38c3 2 5 7 5 15c-5 26 -5 28 -5 35c48 -11 66 -26 66 -68c0 -31 -16 -40 -108 -55c-48 -8 -72 -26 -72 -53c0 -40 13 -57 49 -62c3 0 9 0 92 8c12 0 16 -6 34 -51c-64 -11 -102 -20 -114 -26
c-43 -21 -65 -60 -65 -117c0 -54 28 -80 86 -80c57 0 76 15 129 61z" />
    <glyph glyph-name="paragraph" unicode="&#xb6;" horiz-adv-x="671" 
d="M151 292c-39 0 -83 9 -142 29c-32 16 -74 67 -74 90c0 20 17 38 52 53c128 35 130 36 130 49c-5 22 -6 25 -6 31c53 -13 67 -23 67 -61c0 -26 -18 -37 -78 -46c-68 -10 -103 -27 -103 -52c0 -49 19 -58 154 -72h65v-54h193v291l63 -44v-441c11 -16 21 -24 30 -24
c14 0 27 18 39 53c22 -4 57 -22 57 -29c0 -23 -44 -68 -72 -68c-53 0 -117 36 -117 68v131h-188c0 -59 -14 -97 -38 -97c-47 0 -113 74 -113 119c0 28 27 32 81 37v37z" />
    <glyph glyph-name="periodcentered" unicode="&#xb7;" horiz-adv-x="576" 
d="M335 188v363c11 -5 15 -7 63 -38v-441c8 -14 17 -21 26 -21c14 0 27 16 40 48c40 -12 59 -22 59 -32c0 -31 -36 -65 -70 -65c-41 0 -118 42 -118 70v30c-61 -33 -117 -52 -149 -52c-103 0 -189 74 -189 163c0 51 7 58 75 108c-32 16 -75 67 -75 90c0 20 18 38 53 53
c127 35 129 36 129 49c-5 22 -5 25 -5 31c53 -13 66 -23 66 -61c0 -26 -17 -37 -77 -46c-69 -10 -103 -27 -103 -52c0 -41 18 -52 58 -55c4 0 29 2 83 7c14 0 17 -7 34 -46c-63 -10 -101 -18 -114 -23c-43 -20 -65 -55 -65 -106c0 -48 29 -71 87 -71c67 0 83 11 192 97z" />
    <glyph glyph-name="cedilla" unicode="&#xb8;" horiz-adv-x="476" 
d="M216 -2l-30 -2c-103 0 -189 103 -189 222c0 69 49 123 126 141c165 39 193 55 193 100c0 19 -19 28 -57 28c-17 0 -37 -2 -79 -9c-8 12 -35 59 -36 61c16 8 17 8 59 10c78 0 156 -80 156 -136c0 -51 -24 -59 -230 -126c-53 -27 -80 -67 -80 -121c0 -74 40 -127 107 -127
c28 0 57 14 125 60c-18 22 -26 37 -26 49c0 15 21 30 39 30c25 0 74 -30 74 -57c0 -26 -2 -39 -7 -46c0 -4 16 -16 49 -35s49 -40 49 -63c0 -13 -7 -29 -16 -29c-11 0 -28 8 -58 26c4 5 4 6 6 24c0 21 -21 53 -46 53c-6 0 -11 -2 -16 -5l-14 -10l-121 -141l-42 34z" />
    <glyph glyph-name="onesuperior" unicode="&#xb9;" horiz-adv-x="439" 
d="M186 -6h-3h3zM69 44c-7 -13 -8 -14 -11 -35c0 -30 36 -56 84 -60c35 0 44 14 59 47c-4 -1 -8 -2 -15 -2c5 0 5 0 8 1c-1 0 -2 1 -3 1c-53 0 -89 14 -122 48zM43 76c-25 40 -40 93 -40 142c0 68 49 124 125 141c152 36 193 50 193 100c0 19 -19 28 -57 28
c-17 0 -36 -2 -78 -9c-8 13 -36 58 -37 61c16 8 17 8 59 10c73 0 157 -76 157 -136c0 -50 -27 -60 -230 -126c-54 -27 -81 -67 -81 -121c0 -62 42 -125 84 -125c47 0 73 9 99 35c-11 14 -28 47 -28 65c0 15 20 30 39 30c25 0 73 -30 73 -57c0 -26 -1 -39 -7 -46
c0 -4 17 -16 50 -35s49 -40 49 -63c0 -11 -9 -29 -16 -29c-11 0 -59 21 -59 26c7 6 7 7 7 24c0 24 -24 53 -47 53c-6 0 -11 -2 -15 -5c-24 -16 -30 -20 -46 -29c0 -51 -38 -86 -102 -94c-62 0 -116 36 -116 96c0 6 9 49 24 64z" />
    <glyph glyph-name="guillemotright" unicode="&#xbb;" horiz-adv-x="399" 
d="M211 271l-89 -85l-24 30l85 85l-9 2c-81 -33 -85 -34 -91 -34s-28 17 -47 45c67 28 70 29 86 39c-49 70 -54 78 -54 105c0 45 72 96 138 96c19 0 21 -3 45 -43c-110 -41 -135 -50 -135 -105c0 -21 19 -40 40 -40c7 0 14 3 107 40c5 0 16 -10 51 -47
c-55 -20 -66 -26 -93 -45c49 -70 49 -71 49 -106c0 -56 -28 -96 -91 -132c28 -40 31 -43 45 -43c18 0 33 11 54 31c20 -15 42 -34 59 -51c-8 -7 -49 -16 -71 -16c-42 0 -63 16 -110 71l-6 3c0 -2 0 -2 -22 -3c-64 0 -129 42 -129 89c4 17 15 29 38 29c29 0 52 -8 71 -24
c26 -25 27 -26 33 -26c38 0 76 51 76 103c0 13 -2 23 -6 32z" />
    <glyph glyph-name="onehalf" unicode="&#xbd;" horiz-adv-x="420" 
d="M388 -126c0 -19 -33 -33 -77 -33c-38 0 -52 19 -105 125c-22 40 -29 43 -58 43c-71 0 -132 54 -132 116c0 24 27 35 48 35c45 0 52 -5 120 -77c30 0 75 54 75 95c0 30 -32 101 -50 101c-53 -28 -61 -32 -65 -32c-18 0 -45 29 -45 48c0 5 21 20 62 46c42 26 63 58 63 95
c0 11 -41 53 -62 53c-23 0 -39 -13 -119 -85c-10 0 -49 26 -49 47c0 29 87 98 130 98c46 0 144 -74 144 -163c0 -29 -7 -50 -22 -64c-6 -6 -10 -13 -10 -20c52 -50 73 -94 73 -148c0 -56 -20 -83 -95 -134c47 -117 58 -136 82 -136c22 0 37 5 48 14c10 9 18 14 24 14
c7 0 20 -26 20 -38zM137 78c0 11 -30 40 -45 40c-11 0 -17 -10 -17 -29c0 -22 8 -31 27 -31s35 9 35 20z" />
    <glyph glyph-name="questiondown" unicode="&#xbf;" horiz-adv-x="327" 
d="M131 195c0 48 22 60 97 86c-14 8 -25 8 -80 11c-47 -5 -87 -41 -87 -78c0 -74 81 -168 170 -198c7 -2 26 -10 26 -15c0 -2 -3 -3 -8 -3c-125 0 -245 124 -245 249c0 39 19 59 72 81c-33 23 -63 62 -63 83c0 20 18 38 53 53c127 35 129 36 129 49c-5 22 -6 25 -6 31
c53 -13 67 -23 67 -61c0 -28 -15 -36 -107 -50c-49 -8 -73 -24 -73 -48c0 -27 9 -42 28 -49h30c76 -3 132 -24 132 -51c0 -21 -20 -47 -52 -61c-30 -12 -45 -23 -45 -32c0 -33 29 -61 71 -61h26c-16 -18 -31 -25 -51 -25c-43 0 -84 44 -84 89z" />
    <glyph glyph-name="Agrave" unicode="&#xc0;" horiz-adv-x="731" 
d="M76 328c-33 23 -63 62 -63 83c0 20 18 38 53 53c127 35 129 36 129 49c-5 22 -6 25 -6 31c53 -13 67 -23 67 -61c0 -28 -15 -36 -107 -50c-49 -8 -73 -24 -73 -48c0 -27 9 -43 28 -50c47 0 52 -1 74 -7c46 -16 47 -17 93 -20h66v-54l151 5v291l62 -44v-441
c11 -16 21 -24 30 -24c14 0 27 18 39 53c21 -3 57 -21 57 -29c0 -23 -44 -68 -71 -68c-48 0 -117 32 -117 68v131c-33 0 -121 -3 -147 -5c0 -59 -14 -97 -38 -97c-47 0 -113 74 -113 119c0 28 27 32 81 37v37c-21 0 -49 2 -99 11c-83 -7 -121 -35 -121 -88
c0 -65 91 -165 180 -194c7 -2 26 -10 26 -15c0 -2 -3 -3 -8 -3c-125 0 -245 124 -245 249c0 39 19 59 72 81z" />
    <glyph glyph-name="Aacute" unicode="&#xc1;" horiz-adv-x="708" 
d="M288 311c13 -22 14 -24 14 -35c0 -26 -22 -53 -65 -81c-9 -6 -13 -12 -13 -19c0 -21 35 -36 82 -36c95 13 154 39 161 71l1 338c11 -6 33 -18 61 -40v-445c6 -18 14 -27 23 -27c16 0 35 27 47 57c27 -8 47 -18 54 -25c-5 -34 -48 -70 -79 -70c-37 0 -107 43 -107 70v57
c-32 -22 -66 -35 -104 -37c-91 0 -204 61 -204 114c0 6 2 12 4 18c61 36 79 49 94 67c-72 9 -83 10 -85 10c-78 -8 -114 -38 -114 -89c0 -72 84 -164 173 -193c7 -2 26 -10 26 -15c0 -2 -3 -3 -8 -3c-125 0 -245 124 -245 249c0 39 19 59 72 81c-33 23 -63 62 -63 83
c0 20 18 38 53 53c127 35 129 36 129 49c-5 22 -6 25 -6 31c53 -13 67 -23 67 -61c0 -28 -15 -36 -107 -50c-49 -8 -73 -24 -73 -48c0 -27 9 -43 28 -50c46 0 52 0 124 -24h60z" />
    <glyph glyph-name="Atilde" unicode="&#xc3;" horiz-adv-x="684" 
d="M193 518c-36 0 -89 -36 -89 -61c0 -33 30 -86 39 -86c29 0 75 62 75 107c0 28 -8 40 -25 40zM251 223l-92 -68l-55 24l85 64c-24 12 -41 27 -53 46c-47 -36 -98 -70 -110 -77c-7 8 -17 22 -40 56c14 8 21 12 108 70c-42 63 -55 92 -61 140c0 46 48 84 103 84
c96 0 128 -26 128 -105c0 -51 -39 -118 -83 -142c8 -18 23 -33 45 -44l60 44l57 -26l-28 -21h6c-12 -20 -17 -38 -17 -54c0 -34 25 -51 45 -51c43 0 95 65 95 135v253l62 -43v-447c5 -7 15 -20 26 -20s21 10 50 53c47 -26 51 -29 51 -33c0 -21 -44 -64 -65 -64
c-52 0 -124 37 -124 64v94c-14 -29 -35 -42 -66 -42c-49 0 -87 29 -125 109z" />
    <glyph glyph-name="Adieresis" unicode="&#xc4;" horiz-adv-x="652" 
d="M201 513c-35 0 -89 -37 -89 -62c0 -26 27 -86 39 -86c29 0 75 62 75 107c0 28 -8 41 -25 41zM258 67c0 -20 -8 -21 -32 -24c-18 0 -45 14 -45 36c0 13 6 23 18 35c6 0 10 1 20 5c12 0 39 -36 39 -52zM340 275l60 31v245c2 -1 24 -13 62 -37v-441c8 -14 18 -22 27 -22
c13 0 27 17 40 49c40 -12 59 -22 59 -33c0 -31 -35 -64 -71 -64c-17 0 -117 29 -117 70v161l-129 -71c-16 -12 -23 -20 -23 -27c42 -34 68 -69 68 -93s-31 -44 -68 -44c-84 0 -160 42 -160 87c0 32 49 83 108 114l70 36c-68 7 -106 21 -122 47c-20 -15 -47 -33 -110 -71
l-40 51c12 6 19 10 109 70c-43 62 -56 90 -62 140c0 45 48 83 103 83c96 0 128 -26 128 -105c0 -51 -39 -118 -83 -142c12 -28 39 -34 151 -34z" />
    <glyph glyph-name="AE" unicode="&#xc6;" horiz-adv-x="846" 
d="M486 366c-48 39 -84 59 -104 59c-16 0 -27 -4 -78 -34c0 -97 -27 -139 -138 -218c38 -95 57 -122 89 -122c21 0 38 5 51 17c13 11 22 16 28 16c10 0 29 -31 29 -46c0 -22 -40 -41 -87 -41c-45 0 -58 20 -145 164l-72 12c-47 16 -70 45 -70 86c0 20 28 48 51 48
c25 0 46 -11 63 -33c18 -21 29 -31 33 -31c61 0 119 94 119 181c0 37 -50 75 -73 75c-40 0 -48 -4 -106 -35c-6 0 -38 35 -38 50c0 13 46 40 75 40c80 0 143 -39 175 -108c63 38 64 38 91 41c53 0 110 -53 223 -196v260c22 -11 58 -34 58 -42v-444c0 -16 5 -24 14 -24
c19 0 45 34 57 52h1c6 0 50 -22 50 -34c0 -11 -36 -62 -63 -62c-50 0 -117 39 -117 68v144c-18 -12 -154 -81 -198 -103c-3 0 -4 1 -38 49c57 26 138 68 217 114c-5 10 -26 35 -52 59l-143 -77l-29 47z" />
    <glyph glyph-name="Egrave" unicode="&#xc8;" horiz-adv-x="476" 
d="M402 289c0 -200 -57 -292 -181 -292c-137 0 -205 84 -205 255c0 223 43 297 189 297c112 0 197 -113 197 -260zM328 369c0 86 -34 142 -86 142c-97 -7 -151 -62 -151 -152v-148c0 -148 15 -178 103 -178c66 0 109 45 119 96c10 46 10 63 15 240z" />
    <glyph glyph-name="Eacute" unicode="&#xc9;" horiz-adv-x="413" 
d="M335 68c0 -32 -47 -70 -82 -70c-68 0 -110 59 -110 70v331c-3 0 -5 -1 -7 -2c-14 -15 -28 -22 -42 -22c-55 0 -100 44 -100 97c0 34 45 80 77 80c62 0 91 -19 120 -76c10 -20 15 -36 15 -48v-360c4 -16 11 -24 21 -24c20 0 51 38 51 53c43 -20 46 -21 57 -29zM141 488
c0 9 -21 32 -29 32c-27 0 -76 -54 -76 -83c0 -12 11 -23 32 -26c34 0 73 50 73 77z" />
    <glyph glyph-name="Ecircumflex" unicode="&#xca;" horiz-adv-x="445" 
d="M337 -80c-57 0 -101 39 -190 171c-11 15 -12 15 -33 15c-46 0 -112 64 -112 108c0 27 20 47 47 47c23 0 41 -11 55 -33c15 -22 24 -32 29 -32c9 0 138 121 138 234c0 30 -29 51 -69 51c-45 0 -52 -1 -137 -27c-12 0 -44 52 -44 59s48 36 118 36c97 0 180 -89 180 -198
c0 -60 -45 -130 -139 -224c-4 -6 -6 -14 -6 -22c41 -90 74 -131 105 -131c32 0 58 11 82 37c6 -5 7 -6 37 -59c-27 -25 -28 -26 -61 -32z" />
    <glyph glyph-name="Edieresis" unicode="&#xcb;" horiz-adv-x="454" 
d="M386 119c0 -78 -47 -117 -145 -123c-66 0 -80 11 -178 91c-35 34 -56 61 -61 82c1 -1 1 -1 2 -1c2 0 4 0 9 1c6 0 28 -18 86 -72c30 -29 84 -51 124 -51c71 0 106 45 106 135c0 40 -50 96 -85 96c-16 -10 -36 -16 -65 -16c-5 1 -5 2 -35 59c107 12 144 49 144 113
c0 26 -31 55 -60 55c-33 0 -40 -3 -100 -34c-14 0 -39 43 -39 67c0 7 58 30 76 30c91 0 175 -76 175 -163c0 -29 -1 -32 -52 -95c62 -41 98 -105 98 -174z" />
    <glyph glyph-name="Igrave" unicode="&#xcc;" horiz-adv-x="436" 
d="M386 470l-139 -150c41 -55 72 -147 72 -216c0 -62 -44 -107 -105 -107c-62 0 -132 94 -132 176c0 61 22 92 88 172c9 11 15 19 19 25c-31 76 -66 113 -107 113c-17 0 -17 0 -44 -13c-8 0 -10 3 -37 58c8 4 37 18 48 18c45 0 86 -38 162 -157c17 16 100 105 133 142
c26 -29 28 -33 42 -61zM226 293c-36 -20 -85 -95 -85 -169c0 -46 15 -69 51 -73c34 0 66 41 72 94c0 50 -19 132 -38 148z" />
    <glyph glyph-name="Iacute" unicode="&#xcd;" horiz-adv-x="552" 
d="M496 64c0 -19 -44 -66 -70 -66c-21 0 -115 29 -115 66v125c-61 -44 -74 -51 -92 -51c-55 0 -120 60 -120 112v236c0 27 0 28 -8 28c-10 0 -17 -6 -19 -16c-6 -26 -9 -31 -15 -31c-11 -1 -55 19 -55 31c0 14 34 55 59 55c49 0 95 -49 108 -114v-235c2 -2 3 -4 3 -6
c-2 -3 -2 -6 -2 -7s3 -2 9 -2c34 0 117 83 131 137v225c30 -18 52 -33 64 -45v-442c7 -14 15 -20 22 -20c9 0 14 6 42 53c18 0 58 -23 58 -33z" />
    <glyph glyph-name="Icircumflex" unicode="&#xce;" horiz-adv-x="371" 
d="M291 83c0 40 -11 71 -42 115c-17 24 -26 38 -26 43c13 19 21 40 21 59c0 47 -22 81 -46 81c-20 0 -40 -36 -40 -62c0 -10 5 -25 13 -40c-4 -8 -11 -12 -21 -12c-53 0 -95 36 -95 82c0 59 13 82 86 116c18 9 27 15 27 19s-31 54 -33 54c-44 0 -130 -72 -130 -137
c0 -92 69 -178 147 -178c66 0 88 -22 88 -98c0 -51 -26 -82 -68 -82c-63 4 -100 22 -155 71l-21 11c47 -68 141 -126 198 -126c56 0 97 35 97 84z" />
    <glyph glyph-name="Idieresis" unicode="&#xcf;" horiz-adv-x="441" 
d="M305 323c-17 -18 -40 -25 -72 -25c-38 0 -55 20 -55 68c0 49 24 105 45 105c47 0 82 -62 82 -148zM359 252c0 112 -30 197 -91 259c-25 24 -48 37 -69 37c-41 0 -84 -45 -84 -88c0 -149 42 -198 140 -205c16 0 31 2 43 7v-48c-19 -95 -58 -155 -99 -155
c-56 0 -74 25 -196 206c0 -18 52 -142 92 -196c35 -48 73 -72 115 -72c85 0 149 111 149 255z" />
    <glyph glyph-name="Eth" unicode="&#xd0;" horiz-adv-x="416" 
d="M170 330c-67 -60 -108 -136 -108 -201c0 -35 32 -65 69 -65c41 0 41 0 135 74c26 -29 38 -47 38 -57c0 -11 -88 -82 -133 -82c-75 0 -164 78 -164 198c0 72 21 106 114 188l184 161c7 0 49 -50 49 -61c0 -2 -6 -8 -184 -155z" />
    <glyph glyph-name="Ntilde" unicode="&#xd1;" horiz-adv-x="414" 
d="M316 302l-145 -86c-3 0 -13 15 -30 45l140 92c13 -12 35 -39 35 -51zM349 59c0 -18 -72 -60 -114 -60c-108 0 -236 152 -236 303c0 77 37 144 103 203c30 27 53 41 69 41c5 0 12 -14 29 -60c-103 -50 -135 -122 -135 -270c0 -85 62 -157 135 -157c50 0 66 6 108 47
c28 -26 41 -41 41 -47z" />
    <glyph glyph-name="Ograve" unicode="&#xd2;" horiz-adv-x="403" 
d="M363 250c0 -164 -64 -261 -170 -261c-40 0 -69 13 -99 41c-82 81 -101 112 -101 258c0 175 60 261 162 261c49 0 88 -27 104 -44c78 -78 104 -116 104 -255zM298 287c0 84 -11 130 -39 177c-19 13 -41 20 -64 20c-92 0 -139 -78 -139 -235c0 -107 14 -144 37 -179
c20 -13 24 -14 64 -19c90 0 141 85 141 236z" />
    <glyph glyph-name="Oacute" unicode="&#xd3;" horiz-adv-x="233" 
d="M141 0h-30l-38 38v446h-35l-38 37l17 28h86l38 -38v-511zM111 0l-38 38z" />
    <glyph glyph-name="Ocircumflex" unicode="&#xd4;" horiz-adv-x="451" 
d="M388 0h-318l-37 38l181 197c79 86 101 116 101 171c0 61 -30 82 -87 82c-70 0 -123 -44 -132 -128h-28l-38 38c8 93 74 156 163 156c43 0 78 -14 105 -41l38 -38c31 -26 46 -60 46 -105c0 -57 -29 -104 -103 -182l-114 -124h186l37 -38v-26zM348 57l38 -38z" />
    <glyph glyph-name="Otilde" unicode="&#xd5;" horiz-adv-x="398" 
d="M293 472c-1 1 -2 2 -12 8zM75 386l-37 38zM319 244l4 -9c-1 0 -7 6 -17 18zM212 -9c-45 0 -82 14 -112 43l-37 38c-21 21 -32 44 -42 84h28l37 -38c16 -55 23 -56 90 -63c76 0 136 54 136 124c0 19 -7 43 -19 62c-28 15 -42 19 -94 23l-38 37v26c65 0 119 44 119 97
c0 43 -16 57 -69 57c-49 0 -82 -25 -106 -83h-30l-37 37c16 66 70 111 136 111c37 0 83 -19 102 -40l37 -37c21 -22 35 -54 35 -83c0 -38 -20 -68 -64 -96l54 -51c26 -26 39 -57 39 -93c0 -86 -73 -155 -165 -155z" />
    <glyph glyph-name="Odieresis" unicode="&#xd6;" horiz-adv-x="406" 
d="M393 114h-64v-122h-29l-38 38v84h-203l-38 38l271 384v8h6l37 -37l-6 -8v-320h26l38 -38v-27zM262 179v176l-124 -176h124zM355 179l38 -38z" />
    <glyph glyph-name="multiply" unicode="&#xd7;" horiz-adv-x="406" 
d="M209 -6c-45 0 -81 15 -108 44l-38 38c-20 20 -33 45 -39 73h31l38 -38c9 -40 27 -52 81 -52c80 0 137 62 137 148c0 29 -6 53 -18 74c-22 13 -49 19 -79 19c-28 0 -60 -7 -96 -21l-39 39l44 229h206l37 -38v-26h-186l-20 -120c64 4 97 -4 136 -41l38 -38
c31 -30 46 -69 46 -116c0 -102 -71 -174 -171 -174z" />
    <glyph glyph-name="Oslash" unicode="&#xd8;" horiz-adv-x="406" 
d="M380 138c0 -86 -67 -151 -152 -151c-41 0 -73 14 -105 43l-37 38c-31 27 -39 54 -45 106c0 45 18 90 58 147l153 229l24 -16l37 -37l-116 -176c40 0 69 -9 99 -37l38 -38c31 -32 46 -67 46 -108zM313 176c0 59 -25 83 -84 83c-68 0 -121 -54 -121 -121
c0 -62 26 -85 84 -85c67 0 121 55 121 123zM105 52c1 0 2 -1 4 -3zM315 260l5 -8c-1 0 -9 7 -24 21z" />
    <glyph glyph-name="Ugrave" unicode="&#xd9;" horiz-adv-x="406" 
d="M385 509l-267 -510l-22 12l-37 37l226 435h-202l-37 37v27h300z" />
    <glyph glyph-name="Uacute" unicode="&#xda;" horiz-adv-x="406" 
d="M293 429c0 52 -14 53 -75 59c-65 0 -110 -44 -110 -97c0 -43 22 -66 75 -66c57 0 99 34 110 104zM385 141c0 -88 -68 -154 -167 -154c-51 0 -90 14 -118 41l-38 38c-33 34 -48 68 -48 108c0 60 28 94 104 135l-48 46c-14 12 -31 44 -31 73c0 53 47 126 145 126
c35 0 80 -18 102 -41l37 -37c23 -24 37 -57 37 -87c0 -44 -21 -74 -73 -104c3 -2 15 -11 24 -20l38 -37c26 -31 36 -51 36 -87zM221 262c-79 0 -138 -55 -138 -128c0 -23 5 -43 16 -61c31 -16 49 -22 81 -22c77 0 138 55 138 125c0 59 -29 86 -97 86zM304 489
c-2 3 -3 4 -14 10z" />
    <glyph glyph-name="Ucircumflex" unicode="&#xdb;" horiz-adv-x="406" 
d="M133 -1l-39 37l24 -15zM366 358c0 -42 -14 -78 -57 -146l-153 -229l-23 16l-39 37l117 177c-37 -4 -71 9 -100 36l-37 38c-31 30 -46 65 -46 107c0 85 67 152 152 152c41 0 74 -14 106 -43l37 -39c37 -35 43 -82 43 -106zM300 394c0 57 -14 76 -63 86
c-100 0 -143 -45 -143 -149c0 -31 31 -52 47 -57h38c67 0 121 53 121 120z" />
    <glyph glyph-name="Udieresis" unicode="&#xdc;" horiz-adv-x="269" 
d="M226 518c-48 -114 -70 -229 -70 -354c0 -118 18 -228 53 -324h-29l-38 39c-43 112 -54 213 -54 317c0 120 26 257 68 358h32l38 -36h-32c-47 -113 -61 -192 -69 -360c0 -101 15 -199 41 -279h6c-33 81 -54 203 -54 324c0 125 25 248 70 351z" />
    <glyph glyph-name="Yacute" unicode="&#xdd;" horiz-adv-x="269" 
d="M133 397c-10 41 -28 114 -30 121h-5c12 -33 27 -85 35 -121zM152 231l31 -31zM183 200c0 -126 -25 -253 -70 -360h-31l-38 39c46 110 70 228 70 353c0 101 -19 235 -54 322h29l39 -36c43 -116 48 -189 55 -318zM144 239c0 45 -4 104 -11 158c13 -100 19 -146 19 -203
c0 -121 -25 -246 -70 -354l-38 39h31c45 106 69 230 69 360z" />
    <glyph glyph-name="Thorn" unicode="&#xde;" horiz-adv-x="311" 
d="M83 455l-5 4l-2 -1zM281 342l-10 -18l-95 65l-2 -15l10 -100h-21l-38 39l6 48l-53 -37l-39 39l-11 17l90 39l-51 23l-39 38l11 18l84 -60l12 -6l1 11l-11 101h21l38 -37l-4 -48l53 39l38 -39l10 -17l-87 -40l49 -22zM141 374l-74 -32l11 -18l-39 39l89 60l-45 32l40 -17
l12 -6h3l-2 11l10 101l38 -37h-21l6 -61l74 34l-10 18l38 -39l-87 -62l40 -29l-43 18l-7 5l-1 -3l1 -14l-11 -100l-38 39z" />
    <glyph glyph-name="germandbls" unicode="&#xdf;" horiz-adv-x="443" 
d="M409 229h-155v-154h-26l-39 38v116h-117l-38 39v25h155v155h27l38 -37v-118h117l38 -37v-27zM371 293l38 -37z" />
    <glyph glyph-name="agrave" unicode="&#xe0;" horiz-adv-x="242" 
d="M228 168h-174l-37 37v21h172l39 -38v-20zM54 168l-37 37zM189 226l39 -38z" />
    <glyph glyph-name="aacute" unicode="&#xe1;" horiz-adv-x="376" 
d="M359 57h-33l-37 38l-93 127l-120 -165h-31l-38 38l141 195l-126 173h31l40 -40l75 -105l103 145h33l37 -40l-125 -173z" />
    <glyph glyph-name="acircumflex" unicode="&#xe2;" horiz-adv-x="465" 
d="M435 168h-381l-37 37v21h380l38 -38v-20zM54 168l-37 37zM397 226l38 -38zM283 322l-51 -51l-51 51l51 50zM292 74l-51 -51l-51 51l51 50z" />
    <glyph glyph-name="atilde" unicode="&#xe3;" horiz-adv-x="321" 
d="M300 507l-209 -586h-30l-38 38l209 585h30z" />
    <glyph glyph-name="adieresis" unicode="&#xe4;" horiz-adv-x="406" 
d="M389 121c0 -70 -52 -116 -145 -128v-108l-23 -3l-38 39v77c-37 3 -48 9 -100 49l-38 36l-22 27l20 17c37 -39 61 -62 140 -70v222l-39 21c-6 4 -12 8 -23 19l-38 37c-25 25 -30 50 -30 76c0 67 45 108 130 116v35h23l38 -39v-8c18 -7 40 -20 50 -33l52 -54l-20 -17
l-27 27c-13 9 -31 16 -55 22v-182c44 -26 62 -39 74 -50l36 -38c26 -22 35 -48 35 -90zM324 146c0 45 -19 59 -80 93v-188c46 13 80 53 80 95zM183 313v151c-38 -7 -60 -34 -64 -82c0 -22 1 -27 9 -40z" />
    <glyph glyph-name="ucircumflex" unicode="&#xfb;" horiz-adv-x="2269" 
d="M120 463c0 75 61 136 136 136s127 -49 138 -136h16c0 67 -49 153 -154 153c-83 0 -152 -69 -152 -153h16zM203 463c0 43 21 70 55 70c24 0 40 -13 47 -33h23c0 29 -31 53 -69 53c-50 0 -82 -36 -82 -89zM120 463c0 -75 61 -138 136 -138s138 61 138 138h16
c0 -86 -68 -154 -154 -154c-84 0 -152 70 -152 154h16zM203 463c0 -44 21 -70 55 -70c26 0 45 14 50 37h23c-3 -37 -26 -51 -75 -58c-48 0 -79 36 -79 91h26zM651 309c53 0 89 39 89 97c0 43 -21 68 -70 80c-59 17 -62 26 -67 56c0 29 23 52 52 52c30 0 47 -17 51 -51h27
c0 48 -32 80 -78 80c-49 0 -82 -33 -82 -82c0 -40 25 -66 71 -77c43 -14 65 -35 65 -63c0 -40 -20 -61 -58 -61c-35 0 -55 23 -55 63h-30c0 -56 34 -94 85 -94zM791 428c0 53 39 95 89 95c46 0 86 -43 86 -95h29v115h-29v-36c-21 28 -51 43 -86 43c-67 0 -118 -53 -118 -122
h29zM791 428c0 -54 38 -95 88 -95c47 0 87 43 87 95h29v-115h-29v36c-20 -29 -41 -38 -87 -43c-66 0 -117 50 -117 121zM1075 452c0 44 11 58 50 65v33c-29 0 -46 -21 -52 -32v25h-29v-230h31v139zM1167 428c0 53 38 95 89 95c46 0 86 -44 86 -95h29v115h-29v-36
c-20 26 -53 43 -86 43c-80 0 -118 -69 -118 -122h29zM1167 428c0 -53 37 -95 87 -95c48 0 88 45 88 95h29v-115h-29v36c-19 -28 -41 -38 -88 -43c-67 0 -116 51 -116 121zM1450 313v303h-30v-303h30zM1571 309c54 0 90 39 90 97c0 52 -29 70 -102 92c-28 12 -34 21 -35 44
c0 28 24 52 52 52c29 0 45 -16 52 -51h25c0 48 -30 80 -77 80c-49 0 -82 -33 -82 -82c0 -41 22 -65 72 -77c43 -14 64 -35 64 -63c0 -38 -22 -61 -57 -61s-55 23 -55 63h-32c0 -56 35 -94 85 -94zM1712 425c0 52 38 94 87 94c52 0 90 -39 90 -92l31 -2
c0 67 -52 125 -121 125c-64 0 -116 -56 -116 -123zM1712 425c0 -51 40 -92 89 -92c50 0 88 40 88 92h31c0 -66 -54 -119 -119 -119c-66 0 -118 52 -118 119h29zM1998 517h47v26h-47c0 39 9 46 47 51v25c-57 0 -77 -21 -77 -76h-29v-26h30v-204h29v204zM2123 313v200h43v30
h-43v73h-29v-73h-44v-30h44v-200h29zM778 128h-84v-27h55v-278h29v305zM926 33c0 40 31 71 72 71c42 0 75 -32 75 -71h30c0 58 -41 102 -103 102c-57 0 -104 -44 -104 -102h30zM926 33c0 -43 30 -73 72 -73c43 0 75 31 75 73h30c0 -29 -12 -53 -42 -101l-70 -109h-39l72 111
l-17 -3c-67 -6 -111 34 -111 102h30zM1167 33c0 41 31 71 72 71c42 0 75 -32 75 -71h31c0 57 -46 102 -104 102c-57 0 -103 -46 -103 -102h29zM1167 33c0 -44 31 -73 72 -73c44 0 75 31 75 73h31c-3 -31 -23 -75 -43 -101l-69 -109h-39l72 111l-18 -3
c-67 -6 -110 34 -110 102h29zM1481 -184c58 0 104 48 104 107c0 64 -41 107 -101 107c-24 0 -36 -4 -54 -18l16 85h113v31h-139l-27 -152l23 -11c15 23 36 35 63 35c46 0 77 -30 77 -76c0 -45 -34 -78 -73 -78s-75 33 -75 69l-29 2c0 -55 47 -101 102 -101z" />
    <glyph glyph-name="ydieresis" unicode="&#xff;" horiz-adv-x="2130" 
d="M2011 -2h-1912v-182h1912v182zM323 248c0 45 -18 75 -54 90l-63 30c-23 7 -48 43 -48 73c0 39 9 56 44 65c20 0 35 -16 52 -55l47 47c3 3 4 8 4 15c0 26 -27 53 -57 53c-68 0 -147 -95 -147 -182c0 -45 15 -67 37 -83l72 -35c40 -20 47 -38 53 -87c0 -41 -18 -68 -55 -68
c-20 0 -50 45 -55 82c-42 -44 -56 -65 -56 -84c0 -5 3 -12 4 -14l10 -22c13 -18 31 -30 56 -30c74 0 150 106 156 205zM537 201c-1 4 -4 16 -34 103l-27 64c-12 28 -22 42 -30 42c-9 0 -29 -22 -36 -35l-27 -41l4 -9c3 5 8 8 14 8c14 0 33 -31 47 -76
c-67 -24 -109 -78 -109 -142c0 -41 26 -72 62 -72c18 0 32 13 48 45l21 31l-5 10c-13 -4 -21 -6 -34 -6c-27 3 -39 20 -47 56c0 11 6 23 15 28c61 9 91 -34 118 -164l49 60zM718 410c-6 0 -17 -10 -24 -23l-43 -71v55c0 27 -4 35 -15 39c-4 0 -6 -1 -6 -4l-66 -80l4 -17l3 5
c4 3 6 4 10 5c17 0 22 -95 22 -281l40 52l10 11l2 156l5 35c3 14 8 22 15 22c2 -1 4 -2 7 -3l9 -17c5 -15 7 -26 7 -33l48 68c0 11 -14 81 -28 81zM955 120c-11 46 -23 87 -40 135l-44 113c-11 28 -22 42 -30 42c-9 0 -29 -23 -35 -35l-28 -41l5 -9c2 5 7 8 14 8
c18 0 36 -44 46 -76c-70 -27 -109 -77 -109 -142c0 -39 26 -72 57 -72c23 0 32 8 54 45l20 31l-4 10c-13 -4 -22 -6 -35 -6c-26 3 -39 20 -47 56c0 11 6 23 16 28c71 11 99 -61 117 -164l49 60zM1047 261l-5 333c-4 24 -5 29 -14 29c-5 0 -9 -2 -14 -7l-59 -77l3 -11
c7 5 10 6 16 6c7 0 11 -8 14 -26l6 -164l1 -300c23 33 38 49 57 65zM1259 559h-145l-53 -81l50 1l2 -123l-49 -76h49v-242c33 45 38 50 58 70l-3 165c57 0 63 0 88 59l22 43l-44 -9l-66 -2l1 110h24l36 -6c18 0 27 7 40 33l38 70zM1377 411c-16 0 -35 -12 -56 -37l-17 -21
l1 -12l9 7c55 -1 82 -53 87 -169c0 -37 -9 -56 -27 -56c-27 0 -58 58 -58 131l9 77l-30 -40c-21 -26 -31 -58 -31 -98c0 -68 31 -144 70 -144c49 0 116 120 116 208c0 80 -35 154 -73 154zM1684 255c-7 106 -19 161 -35 161c-7 0 -16 -8 -25 -23l-27 -48l-50 -109l-6 132
c-4 26 -9 41 -18 48l-9 -4l-63 -83l5 -13l3 3c4 4 7 6 10 6c9 0 14 -11 17 -32l8 -158l2 -86h11c25 119 75 234 99 234c8 0 13 -8 17 -23l8 -40l13 -171c25 38 29 42 52 62zM1819 405h-25l3 103l-54 -67l-2 -40l-12 4l-36 -81l46 1l-3 -58v-118c0 -58 11 -100 27 -100
c5 0 12 4 21 12l42 47l-3 15l-14 3c-6 0 -11 16 -13 40l-2 100v59h17c7 20 32 67 45 85zM1949 416c-17 0 -34 -12 -51 -35l-32 -43l-15 -27c-5 -12 -5 -13 -9 -42c0 -26 9 -41 38 -60c54 -20 60 -23 69 -71c0 -14 -6 -20 -18 -20c-32 0 -39 14 -46 68
c-31 -33 -47 -51 -47 -75c0 -34 17 -59 46 -62c39 0 98 85 109 157c0 25 -13 50 -30 55l-35 15c-10 4 -16 8 -25 17l-10 13c-6 18 -6 19 -6 23c0 16 3 17 16 17c23 0 36 -14 41 -44c28 28 39 44 42 66c0 23 -19 48 -37 48z" />
  </font>
</defs>
</svg>
